<?xml version="1.0" encoding="utf-8"?>
<!-- Generator: Adobe Illustrator 18.1.1, SVG Export Plug-In . SVG Version: 6.00 Build 0)  -->
<svg version="1.1" id="Layer_1" xmlns="http://www.w3.org/2000/svg" xmlns:xlink="http://www.w3.org/1999/xlink" x="0px" y="0px"
	 viewBox="0 0 640 480" enable-background="new 0 0 640 480" xml:space="preserve">
<g>
	<g>
		<ellipse fill="#F1E0C2" cx="314" cy="464" rx="221.6" ry="12"/>
	</g>
	<g>
		<g>
			<g>
				<g>
					<g>
						<g>
							<g>
								<path fill="#D4BFA0" d="M236,271.3c13.6-15.7,41.5,14,57.7,34.3c7.4,9.3,12.4,16.6,12.4,16.6c2.5,2.8,4.6,5.4,6.4,7.7
									c1,1.3,1.9,2.5,2.6,3.6l-22.8,10.8c-7.1-5.1-14.8-10.7-19.8-14.6C251.1,312.8,223.1,286.2,236,271.3z"/>
							</g>
						</g>
					</g>
				</g>
				<g>
					<g>
						<g>
							<g>
								<path fill="#BA967E" d="M257.7,291.6c0.4-0.6,1.1-0.7,1.5-0.2c1.5,1.4,31,28.9,47.1,46.3l-2.3,1.1
									c-16.4-17.6-45.8-45-46.2-45.3C257.4,293,257.4,292.2,257.7,291.6z"/>
							</g>
						</g>
					</g>
				</g>
			</g>
			<g>
				<g>
					<g>
						<g>
							<g>
								<path fill="#F1E0C2" d="M298.7,289.6c1.3,3.8,2.3,7.2,3.2,10.2c0.6,2.3,1.1,4.4,1.5,6.2l-18.1,8.5
									c-5.8-9.7-15-25.5-19.8-34.7c-13.6-25.9-29.8-64-12.9-71.1c17.9-7.6,32.9,33.2,40.6,59.7
									C296.7,280.4,298.7,289.6,298.7,289.6z"/>
							</g>
						</g>
					</g>
				</g>
				<g>
					<g>
						<g>
							<g>
								<path fill="#D4BFA0" d="M293.6,310.6c-7.5-22.3-28.5-70.5-28.7-71c-0.3-0.6-0.1-1.4,0.5-1.8c0.5-0.3,1.2-0.1,1.5,0.6
									c0.9,2.2,21.4,48.9,28.8,71.2L293.6,310.6z"/>
							</g>
						</g>
					</g>
				</g>
			</g>
		</g>
		<g>
			<g>
				<g>
					<g>
						<g>
							<path fill="#D4BFA0" d="M477.7,220.7c0,0,80.6-30.6,70.7-66.7C537.4,114.1,492.3,174.3,477.7,220.7z"/>
						</g>
					</g>
				</g>
				<g>
					<g>
						<g>
							<g>
								<g>
									<path fill="#BA967E" d="M469.6,230c18.2-24.9,47.9-54.2,48.2-54.6c0.3-0.3,0.7-0.2,0.9,0.1c0.2,0.3,0.2,0.8-0.1,1.1
										c-0.4,0.4-30.3,30-48.3,54.7L469.6,230z"/>
								</g>
							</g>
						</g>
					</g>
				</g>
			</g>
			<g>
				<g>
					<g>
						<g>
							<path fill="#F1E0C2" d="M485.2,192.3c0,0-2.3-117.7,37.4-106.6C553,94.2,525.6,160.5,485.2,192.3z"/>
						</g>
					</g>
				</g>
				<g>
					<g>
						<g>
							<g>
								<g>
									<path fill="#D4BFA0" d="M468.9,234.7c15.4-41,40.9-107.5,41.2-108.3c0.2-0.4,0.5-0.6,0.9-0.4c0.3,0.2,0.5,0.7,0.3,1.1
										c-0.3,0.8-26.1,68.3-41.5,109.2L468.9,234.7z"/>
								</g>
							</g>
						</g>
					</g>
				</g>
			</g>
		</g>
		<g>
			<g>
				<g>
					<g>
						<g>
							<path fill="#D4BFA0" d="M462.3,409.6c16.7-27.8,32.4-60,41.1-81.5c11.3-28.1,15.5-50.3,12.4-66.2c-0.2-1.1-1.1-1.7-2-1.5
								c-0.9,0.2-1.4,1.3-1.2,2.3c5.4,27.7-13.4,80-54.4,146.8L462.3,409.6z"/>
						</g>
					</g>
				</g>
			</g>
			<g>
				<g>
					<g>
						<path fill="#F1E0C2" d="M511.7,302.1c0,0,11.7,8.6,23.5-16.4C535.2,285.6,514.3,278.5,511.7,302.1z"/>
					</g>
				</g>
			</g>
			<g>
				<g>
					<g>
						<path fill="#F1E0C2" d="M506.2,315.3c0,0,7.8-13.4-12.5-28.9C493.7,286.4,486.6,311,506.2,315.3z"/>
					</g>
				</g>
			</g>
			<g>
				<g>
					<g>
						<path fill="#F1E0C2" d="M515.1,274.5c0,0,11.1-9.5-3.7-32.2C511.4,242.3,497.8,262.7,515.1,274.5z"/>
					</g>
				</g>
			</g>
			<g>
				<g>
					<g>
						<path fill="#F1E0C2" d="M495.7,342.4c0,0,8.5,12.8,26.8-6C522.5,336.5,504.8,321.3,495.7,342.4z"/>
					</g>
				</g>
			</g>
			<g>
				<g>
					<g>
						<path fill="#F1E0C2" d="M488.3,354.9c0,0,9.7-11.6-8.1-31C480.2,323.9,469.6,346.6,488.3,354.9z"/>
					</g>
				</g>
			</g>
			<g>
				<g>
					<g>
						<path fill="#F1E0C2" d="M479.6,373.3c0,0,8.3,13,26.9-5.4C506.5,367.9,489,352.3,479.6,373.3z"/>
					</g>
				</g>
			</g>
			<g>
				<g>
					<g>
						<path fill="#F1E0C2" d="M472.9,387.4c0,0-13.5-2.6-8.8-30.8C464.1,356.6,483.9,367.6,472.9,387.4z"/>
					</g>
				</g>
			</g>
		</g>
	</g>
	<g>
		<g>
			<g>
				<path fill="#1F141D" d="M489.4,38.5v405.9c0,12.7-8.7,23-19.3,23H300.3c-5.4,0-10.2-2.6-13.7-6.8c-3.5-4.2-5.6-9.9-5.6-16.2
					V38.5c0-12.7,8.7-23,19.3-23H470c3.2,0,6.1,0.9,8.8,2.5C485.1,21.8,489.4,29.6,489.4,38.5z"/>
			</g>
			<g>
				<path fill="#594B54" d="M281,142.1h-2.1c-2.7,0-4.9-2.2-4.9-4.9V93.4c0-2.7,2.2-4.9,4.9-4.9h2.1V142.1z"/>
				<path fill="#594B54" d="M489.4,128.1h1.8c2.2,0,4-1.8,4-4V88.5c0-2.2-1.8-4-4-4h-1.8V128.1z"/>
				<path fill="#594B54" d="M281,203h-2.1c-2.7,0-4.9-2.2-4.9-4.9v-43.8c0-2.7,2.2-4.9,4.9-4.9h2.1V203z"/>
			</g>
			<g>
				<path fill="#FFFFFF" d="M479.7,37.1v408.7c0,5.6-3.8,10.1-8.5,10.1h-172c-3.5,0-6.5-2.5-7.8-6.2c-0.4-1.2-0.7-2.6-0.7-4V37.1
					c0-5.6,3.8-10.1,8.5-10.1h172c1.2,0,2.3,0.3,3.3,0.8C477.6,29.3,479.7,32.9,479.7,37.1z"/>
			</g>
			<g>
				<path fill="#F1E0C2" d="M465.5,231.3H308.8c-0.6,0-1.1,0.6-1.1,1.3l0,0c0,0.7,0.5,1.3,1.1,1.3h156.7c0.6,0,1.1-0.6,1.1-1.3l0,0
					C466.6,231.9,466.1,231.3,465.5,231.3z"/>
				<path fill="#F1E0C2" d="M465.5,242.6H308.8c-0.6,0-1.1,0.6-1.1,1.3l0,0c0,0.7,0.5,1.3,1.1,1.3h156.7c0.6,0,1.1-0.6,1.1-1.3l0,0
					C466.6,243.2,466.1,242.6,465.5,242.6z"/>
			</g>
			<g>
				<path fill="#F1E0C2" d="M465.5,93.2h-75.1c-0.6,0-1.1-0.6-1.1-1.3l0,0c0-0.7,0.5-1.3,1.1-1.3h75.1c0.6,0,1.1,0.6,1.1,1.3l0,0
					C466.6,92.6,466.1,93.2,465.5,93.2z"/>
				<path fill="#F1E0C2" d="M465.5,104.5h-75.1c-0.6,0-1.1-0.6-1.1-1.3l0,0c0-0.7,0.5-1.3,1.1-1.3h75.1c0.6,0,1.1,0.6,1.1,1.3l0,0
					C466.6,103.9,466.1,104.5,465.5,104.5z"/>
				<path fill="#F1E0C2" d="M465.5,115.7h-75.1c-0.6,0-1.1-0.6-1.1-1.3l0,0c0-0.7,0.5-1.3,1.1-1.3h75.1c0.6,0,1.1,0.6,1.1,1.3l0,0
					C466.6,115.1,466.1,115.7,465.5,115.7z"/>
				<path fill="#F1E0C2" d="M465.5,126.9h-75.1c-0.6,0-1.1-0.6-1.1-1.3l0,0c0-0.7,0.5-1.3,1.1-1.3h75.1c0.6,0,1.1,0.6,1.1,1.3l0,0
					C466.6,126.3,466.1,126.9,465.5,126.9z"/>
				<path fill="#F1E0C2" d="M465.5,138.1h-75.1c-0.6,0-1.1-0.6-1.1-1.3l0,0c0-0.7,0.5-1.3,1.1-1.3h75.1c0.6,0,1.1,0.6,1.1,1.3l0,0
					C466.6,137.5,466.1,138.1,465.5,138.1z"/>
				<path fill="#F1E0C2" d="M465.5,149.4h-75.1c-0.6,0-1.1-0.6-1.1-1.3l0,0c0-0.7,0.5-1.3,1.1-1.3h75.1c0.6,0,1.1,0.6,1.1,1.3l0,0
					C466.6,148.8,466.1,149.4,465.5,149.4z"/>
			</g>
			<g>
				<g>
					<rect x="377.2" y="330.5" fill="#FF7757" width="63.5" height="57.4"/>
					<rect x="375.1" y="327.6" fill="#FF7757" width="67.7" height="9.5"/>
					<rect x="377.2" y="337.1" fill="#FF3A08" width="63.5" height="5.3"/>
					<rect x="406.1" y="327.6" fill="#FFFFFF" width="5.6" height="60.3"/>
					<rect x="406.1" y="342" fill="#EFEFEF" width="5.6" height="45.9"/>
					<rect x="406.1" y="337.1" fill="#F1E0C2" width="5.6" height="5.3"/>
				</g>
				<g>
					<polygon fill="#FDB105" points="349.3,342.2 407.1,310.9 387.2,258.6 329.4,289.9 					"/>
					<polygon fill="#FDB105" points="329.8,297 391.4,263.7 388.1,255 326.5,288.4 					"/>
					<polygon fill="#EA8400" points="333.5,300.8 391.3,269.5 389.5,264.7 331.7,296 					"/>
					<polygon fill="#FFFFFF" points="375.7,328 380.8,325.2 359.8,270.3 354.7,273 					"/>
					<polygon fill="#EFEFEF" points="364.8,283.5 359.8,286.2 375.7,328 380.8,325.2 					"/>
					<polygon fill="#F1E0C2" points="363.1,279 358.1,281.7 359.9,286.5 365,283.8 					"/>
				</g>
				<g>
					<g>
						<g>
							<path fill="#1F141D" d="M411.5,423.7c-5,9.9,3.6,20.3,11.9,14.4c0.8-0.6,1.5-1.4,2-2.3c5-9.9-3.6-20.3-11.9-14.4
								C412.6,422,412,422.8,411.5,423.7z"/>
						</g>
						<g>
							<path fill="#594B54" d="M418.5,436.1c2.9,0,5.3-2.8,5.3-6.3c0-3.5-2.4-6.3-5.3-6.3s-5.3,2.8-5.3,6.3
								C413.2,433.2,415.5,436.1,418.5,436.1z"/>
						</g>
					</g>
					<g>
						<g>
							<path fill="#1F141D" d="M365.3,423.7c-5,9.9,3.6,20.3,11.9,14.4c0.8-0.6,1.5-1.4,2-2.3c5-9.9-3.6-20.3-11.9-14.4
								C366.5,422,365.8,422.8,365.3,423.7z"/>
						</g>
						<g>
							<path fill="#594B54" d="M372.3,436.1c2.9,0,5.3-2.8,5.3-6.3c0-3.5-2.4-6.3-5.3-6.3c-2.9,0-5.3,2.8-5.3,6.3
								C367,433.2,369.4,436.1,372.3,436.1z"/>
						</g>
					</g>
					<g>
						<path fill="#1F141D" d="M455.5,299.6c-0.4-0.6-1-0.9-1.6-0.9H329.1l-2-8.6c-0.3-1.1-1.1-1.9-2.1-1.9h-13.5v5.2h11.8l1.9,8.4
							c0,0.1,0,0.2,0,0.2l3.9,16.7v0l0.6,2.6l4.9,21l1.2,5.1l4.8,20.3l1.2,5.1l4.3,18.3c0,0.1,0.1,0.2,0.1,0.3l0,0c0,0,0,0,0,0
							l3.7,15.8c1.9,8.2,8.3,14,15.4,14h65.8c1.2,0,2.1-1.1,2.1-2.6c0-1.4-1-2.6-2.1-2.6h-65.8c-5.2,0-9.9-4.2-11.3-10.2l-3-12.9
							h92.3c1.1,0,2-0.9,2.1-2.2l2.1-18l0.6-5.1l2.4-20.3l0.6-5.1l2.5-21.6c0.2-0.4,0.3-0.8,0.3-1.3c0-0.2,0-0.4-0.1-0.6l2-17.1
							C456,300.9,455.9,300.1,455.5,299.6z M441.5,387.9h-91.6l-2.9-12.6c0-0.1-0.1-0.2-0.1-0.3v0l-0.5-2.1h96.9L441.5,387.9z
							 M443.9,367.7h-98.7l-4.8-20.3h105.9L443.9,367.7z M446.9,342.2H339.2l-4.8-20.3h114.8L446.9,342.2z M449.8,316.8H333.2l-3-13
							h121.2L449.8,316.8z"/>
					</g>
					<path fill="#594B54" d="M298.3,290.7L298.3,290.7c0,1.4,1,2.6,2.2,2.6h15v-5.2h-15C299.3,288.1,298.3,289.3,298.3,290.7z"/>
				</g>
			</g>
			<g>
				<path fill="#F1E0C2" d="M369.7,152.9h-53c-5,0-9-4-9-9V95.3c0-5,4-9,9-9h53c5,0,9,4,9,9v48.6
					C378.7,148.8,374.7,152.9,369.7,152.9z"/>
				<g>
					<g>
						<g>
							<g>
								<g>
									<g>
										<path fill="#FF7757" d="M312.3,137.7l56.2-0.3c0.4-0.9,0.6-2.2,0.7-3.7c0.3-5.7-1.2-14.7-2-20.4c-0.1-0.7-0.2-1.3-0.2-1.8
											c-0.1-1-0.2-1.7-0.2-2.3c0-4.7-3.5-3.8-3.5-3.8c-5.7,6.7-12.1-3.3-15.9,0c0,0-1.6,1.4-6.1,6.2c-4.4,4.8-12,8-18.5,11.3
											c-8.3,4.2-10.7,8.4-11.1,11.2C311.4,136.3,312.3,137.7,312.3,137.7z"/>
									</g>
								</g>
							</g>
						</g>
					</g>
					<g>
						<g>
							<g>
								<g>
									<g>
										<path fill="#FF3A08" d="M312.3,137.7l56.2-0.3c0.4-0.9,0.6-2.2,0.7-3.7l-57.5,0.3C311.4,136.3,312.3,137.7,312.3,137.7z"
											/>
									</g>
								</g>
							</g>
						</g>
					</g>
					<g>
						<g>
							<g>
								<g>
									<g>
										<g>
											<g>
												<path fill="#FFFFFF" d="M346.6,108.2c0,0-1-2.9-3.2-2c-2.2,0.9-2,5.3-2,5.3S342.8,115.5,346.6,108.2z"/>
											</g>
										</g>
									</g>
								</g>
							</g>
						</g>
						<g>
							<g>
								<g>
									<g>
										<g>
											<path fill="#FFFFFF" d="M347.4,121.3c0.5,0,0.9-0.5,0.9-1.1c0-6.7-3.5-10.2-3.7-10.4c-0.4-0.4-1-0.3-1.3,0.1
												c-0.3,0.5-0.3,1.2,0.1,1.6c0.1,0.1,3,3.1,3,8.7C346.5,120.8,346.9,121.3,347.4,121.3z"/>
										</g>
									</g>
								</g>
							</g>
						</g>
						<g>
							<g>
								<g>
									<g>
										<g>
											<path fill="#FFFFFF" d="M335.7,112.7c0.2,0,0.4-0.1,0.6-0.3c1.2-1.2,4.6-1.5,6.5-1.4c0.5,0,1-0.4,1-1
												c0-0.6-0.4-1.1-0.9-1.2c-0.6,0-5.8-0.3-7.9,1.9c-0.4,0.4-0.4,1.1-0.1,1.6C335.2,112.6,335.4,112.7,335.7,112.7z"/>
										</g>
									</g>
								</g>
							</g>
						</g>
						<g>
							<g>
								<g>
									<g>
										<g>
											<g>
												<path fill="#FFFFFF" d="M343.8,111.9l0.4-2.3c0,0,0,0,0.1,0l-1-1.1c0.5-0.6,5.2-6.1,9.1-6.1c0,0,0.1,0,0.1,0
													c1.2,0,2.1,0.5,2.9,1.5c0.8,1,1.1,2.3,0.7,3.6c-0.6,2.1-2.8,3.8-5.8,4.2c-2,0.3-3.4,0.4-4.5,0.4
													C344.5,112,343.9,111.9,343.8,111.9z M345.1,109.6c0.9,0,2.5,0,4.9-0.4c2.5-0.4,3.9-1.6,4.2-2.7c0.1-0.4,0-0.8-0.2-1.1
													c-0.4-0.5-0.9-0.7-1.5-0.7c0,0,0,0,0,0C350.1,104.7,346.7,107.9,345.1,109.6z"/>
											</g>
										</g>
									</g>
								</g>
							</g>
						</g>
						<g>
							<g>
								<g>
									<g>
										<g>
											<g>
												<path fill="#FFFFFF" d="M342.3,110.8l0.9-2.2c-1.9-1-3.6-3.8-3.5-5.4c0-0.4,0.2-0.9,1-1.2c0.6-0.2,0.9,0,1.1,0.1
													c1,0.9,1.3,3.9,1.3,5.6l2,0.1c0-0.6,0-5.6-2-7.6c-0.6-0.5-1.5-1-2.9-0.5c-2,0.7-2.4,2.4-2.5,3.3
													C337.4,106,339.9,109.5,342.3,110.8z"/>
											</g>
										</g>
									</g>
								</g>
							</g>
						</g>
					</g>
					<g>
						<g>
							<g>
								<g>
									<g>
										<g>
											<path fill="#FF3A08" d="M362.8,137.5l1.7,0c-1.7-2.3-3.2-5.7-3.1-10.7c0.2-6.6,3.6-11.1,5.9-13.4
												c-0.1-0.7-0.2-1.3-0.2-1.8c-2.5,2.3-6.7,7.3-7,15.2C359.9,131.4,361.2,135,362.8,137.5z"/>
										</g>
									</g>
								</g>
							</g>
						</g>
					</g>
					<g>
						<g>
							<g>
								<g>
									<g>
										<path fill="#FFFFFF" d="M342.4,115.5c0.4,0,0.8-0.3,0.9-0.8c0.1-0.6-0.2-1.2-0.7-1.3l-3.5-1c-0.5-0.1-1,0.2-1.1,0.8
											c-0.1,0.6,0.2,1.2,0.7,1.3l3.5,1C342.2,115.5,342.3,115.5,342.4,115.5z"/>
									</g>
								</g>
							</g>
						</g>
					</g>
					<g>
						<g>
							<g>
								<g>
									<g>
										<path fill="#FFFFFF" d="M338.9,117.9c0.4,0,0.8-0.3,0.9-0.8c0.1-0.6-0.2-1.2-0.7-1.3l-3.5-1c-0.5-0.1-1,0.2-1.1,0.8
											c-0.1,0.6,0.2,1.2,0.7,1.3l3.5,1C338.7,117.9,338.8,117.9,338.9,117.9z"/>
									</g>
								</g>
							</g>
						</g>
					</g>
					<g>
						<g>
							<g>
								<g>
									<g>
										<path fill="#FFFFFF" d="M335.4,120.3c0.4,0,0.8-0.3,0.9-0.8c0.1-0.6-0.2-1.2-0.7-1.3l-3.5-1c-0.5-0.1-1,0.2-1.1,0.8
											c-0.1,0.6,0.2,1.2,0.7,1.3l3.5,1C335.2,120.3,335.3,120.3,335.4,120.3z"/>
									</g>
								</g>
							</g>
						</g>
					</g>
					<g>
						<g>
							<g>
								<g>
									<g>
										<path fill="#FFFFFF" d="M331.5,122.5c0.4,0,0.8-0.3,0.9-0.8c0.1-0.6-0.2-1.2-0.7-1.3l-3.5-1c-0.5-0.1-1,0.2-1.1,0.8
											c-0.1,0.6,0.2,1.2,0.7,1.3l3.5,1C331.4,122.4,331.5,122.5,331.5,122.5z"/>
									</g>
								</g>
							</g>
						</g>
					</g>
					<g>
						<g>
							<g>
								<g>
									<g>
										<path fill="#FFFFFF" d="M327.4,124.3c0.4,0,0.8-0.3,0.9-0.8c0.1-0.6-0.2-1.2-0.7-1.3l-3.5-1c-0.5-0.1-1,0.2-1.1,0.8
											c-0.1,0.6,0.2,1.2,0.7,1.3l3.5,1C327.3,124.3,327.3,124.3,327.4,124.3z"/>
									</g>
								</g>
							</g>
						</g>
					</g>
				</g>
			</g>
			<g>
				<g>
					<g>
						<g>
							<g>
								<polygon fill="#FDB105" points="330.3,199 324.4,202.7 325.5,194.9 320.7,189.3 327.3,188.2 330.3,181 333.2,188.2 
									339.8,189.3 335,194.9 336.2,202.7 								"/>
							</g>
						</g>
					</g>
					<g>
						<g>
							<g>
								<polygon fill="#FDB105" points="360.4,199 354.5,202.7 355.6,194.9 350.8,189.3 357.4,188.2 360.4,181 363.3,188.2 
									369.9,189.3 365.1,194.9 366.3,202.7 								"/>
							</g>
						</g>
					</g>
					<g>
						<g>
							<g>
								<polygon fill="#FDB105" points="390.5,199 384.6,202.7 385.7,194.9 380.9,189.3 387.5,188.2 390.5,181 393.4,188.2 
									400,189.3 395.3,194.9 396.4,202.7 								"/>
							</g>
						</g>
					</g>
					<g>
						<g>
							<g>
								<polygon fill="#FDB105" points="420.6,199 414.7,202.7 415.8,194.9 411,189.3 417.6,188.2 420.6,181 423.5,188.2 
									430.1,189.3 425.4,194.9 426.5,202.7 								"/>
							</g>
						</g>
					</g>
					<g>
						<g>
							<g>
								<polygon fill="#F1E0C2" points="449.1,199 443.2,202.7 444.3,194.9 439.5,189.3 446.1,188.2 449.1,181 452,188.2 
									458.6,189.3 453.8,194.9 455,202.7 								"/>
							</g>
						</g>
					</g>
				</g>
				<g>
					<path fill="#F1E0C2" d="M448.8,213.1H324.5c-9.8,0-17.8-9.5-17.8-21.2c0-11.7,8-21.2,17.8-21.2h124.3c9.8,0,17.8,9.5,17.8,21.2
						C466.6,203.6,458.6,213.1,448.8,213.1z M324.5,172.7c-8.9,0-16.1,8.6-16.1,19.2c0,10.6,7.2,19.2,16.1,19.2h124.3
						c8.9,0,16.1-8.6,16.1-19.2c0-10.6-7.2-19.2-16.1-19.2H324.5z"/>
				</g>
			</g>
			<g>
				<g>
					<path fill="#F1E0C2" d="M479.7,37.1v21.5H290.6V37.1c0-5.6,3.8-10.1,8.5-10.1h172c1.2,0,2.3,0.3,3.3,0.8
						C477.6,29.3,479.7,32.9,479.7,37.1z"/>
				</g>
			</g>
			<g>
				<path fill="#1F141D" d="M436.8,47.3H333.5c-3.8,0-6.8-3.1-6.8-6.8v-9.7c0-3.8,3.1-6.8,6.8-6.8h103.3c3.8,0,6.8,3.1,6.8,6.8v9.7
					C443.7,44.2,440.6,47.3,436.8,47.3z"/>
				<path fill="#594B54" d="M413.7,36.9h-66.7c-0.9,0-1.7-0.8-1.7-1.7v-2.4c0-0.9,0.8-1.7,1.7-1.7h66.7c0.9,0,1.7,0.8,1.7,1.7v2.4
					C415.4,36.2,414.6,36.9,413.7,36.9z"/>
				<ellipse fill="#594B54" cx="429.6" cy="33.9" rx="2.9" ry="3.4"/>
			</g>
		</g>
		<g>
			<g>
				<g>
					<g>
						<path fill="#2F72FB" d="M481.1,112.8l15.6,42.3c1,2.7,3.7,4,6,2.8l35.5-18.5c2.3-1.2,3.3-4.4,2.3-7.1L525,89.9
							c-1-2.7-3.7-4-6-2.8l-35.5,18.5C481.2,106.8,480.1,110,481.1,112.8z M504.8,104.6c-1.4,1.2-3.4,0.3-3.7-1.8
							c-0.2-1,0.2-2.1,0.9-2.7c1.4-1.2,3.4-0.3,3.7,1.8C505.9,102.9,505.5,104,504.8,104.6z"/>
					</g>
				</g>
				<g>
					<g>
						<path fill="#FFFFFF" d="M494.7,123.5c-1.7-4.6-0.2-8.6,3.2-10.4c3.3-1.7,6.8-0.4,8.5,4.2c1.7,4.7,0.2,8.6-3.2,10.4
							C499.9,129.4,496.4,128.1,494.7,123.5z M510.9,106.7l5.3-2.8l-5.4,34.1l-5.3,2.8L510.9,106.7z M501.9,119.7
							c-0.9-2.5-1.9-2.9-2.6-2.5c-0.7,0.4-1.1,1.5-0.2,4c0.9,2.5,1.9,2.9,2.6,2.5C502.4,123.3,502.8,122.2,501.9,119.7z
							 M515.4,127.4c-1.7-4.6-0.2-8.6,3.2-10.4c3.3-1.7,6.8-0.4,8.5,4.2c1.7,4.7,0.2,8.6-3.2,10.4
							C520.6,133.4,517.1,132.1,515.4,127.4z M522.6,123.6c-0.9-2.5-1.9-2.9-2.6-2.5c-0.7,0.4-1.1,1.5-0.2,4
							c0.9,2.5,1.9,2.9,2.6,2.5C523.1,127.2,523.5,126.1,522.6,123.6z"/>
					</g>
				</g>
			</g>
			<g>
				<g>
					<path fill="#FF7757" d="M506.2,81.3c-2.4-13.4-8.5-28.7-16.3-40.8c-0.2-0.3-0.3-0.5-0.5-0.8v2.4c8.1,12.9,13.6,27.9,15.7,39.5
						c0.9,4.8,1.1,9,0.9,12.3c-0.2,2.5-0.7,4.5-1.6,5.9c-0.3,0.5-0.7,1-1.1,1.3c-0.6,0.5-1.3,0.8-2.2,0.8c-0.1,0.5,0,0.9,0.1,1.4
						c1-0.1,1.9-0.4,2.7-1.1c0.5-0.4,1-0.9,1.4-1.6c1.1-1.7,1.7-4.2,1.9-7.4C507.3,89.9,507,85.9,506.2,81.3z M489.4,93.7
						c-11.9-17.6-28.7-69.3-31.6-78.2c0-0.1,0-0.1-0.1-0.2c0.3,0.1,0.5,0.1,0.8,0.2h4.2c-1.9-0.7-3.8-1.3-5.8-1.8
						c-0.2,0-0.4,0-0.5,0.2c-0.1,0.2-0.2,0.4-0.1,0.7c0,0.1,0.1,0.4,0.3,0.9c2.5,7.9,20.3,63.3,32.8,80.3c1.2,1.6,2.3,2.8,3.3,3.7
						c0.3,0.3,0.7,0.5,1,0.7l1.3-0.7c-0.5-0.4-1.1-0.8-1.6-1.2C492.1,97.4,490.8,95.8,489.4,93.7z"/>
				</g>
			</g>
		</g>
	</g>
	<g>
		<g>
			<g>
				<g>
					<g>
						<g>
							<g>
								<g>
									<g>
										<polygon fill="#AD5000" points="157.2,401.2 151.2,407.1 158.1,419.9 164,414 										"/>
									</g>
								</g>
							</g>
						</g>
						<g>
							<g>
								<g>
									<g>
										<g>
											<g>
												<path fill="#FDB105" d="M157.5,463.7l-25-46.8c0.3-0.8,1-1.5,1.9-2.3c3.2-2.8,9.1-5.6,12.8-7.5c0.4-0.2,0.8-0.4,1.2-0.6
													c0.6-0.3,1.1-0.6,1.4-0.9c2.7-2.1,3.8,1.2,3.8,1.2c-1.4,7.7,7.3,8.6,7.1,13.2c0,0-0.1,2-0.9,7.8
													c-0.8,5.8,0.7,13.6,1.7,20.4c1.3,8.8-0.1,12.6-1.6,14.3C158.7,463.7,157.5,463.7,157.5,463.7z"/>
											</g>
										</g>
									</g>
								</g>
							</g>
							<g>
								<g>
									<g>
										<g>
											<g>
												<path fill="#EA8400" d="M157.5,463.7l-25-46.8c0.3-0.8,1-1.5,1.9-2.3l25.5,47.8C158.7,463.7,157.5,463.7,157.5,463.7z"
													/>
											</g>
										</g>
									</g>
								</g>
							</g>
							<g>
								<g>
									<g>
										<g>
											<g>
												<g>
													<g>
														<path fill="#FFFFFF" d="M159.4,421.9c0,0,2.2-0.5,2.6,1.8c0.4,2.3-2.2,4-2.2,4S156.9,428.4,159.4,421.9z"/>
													</g>
												</g>
											</g>
										</g>
									</g>
								</g>
								<g>
									<g>
										<g>
											<g>
												<g>
													<path fill="#FFFFFF" d="M151.4,427.2c-0.2-0.4-0.1-1,0.2-1.3c3.9-3,7.6-1.7,7.7-1.6c0.4,0.1,0.6,0.7,0.5,1.1
														c-0.1,0.5-0.6,0.8-1,0.6c-0.1,0-3.2-1.1-6.4,1.4C152.1,427.8,151.6,427.6,151.4,427.2z"/>
												</g>
											</g>
										</g>
									</g>
								</g>
								<g>
									<g>
										<g>
											<g>
												<g>
													<path fill="#FFFFFF" d="M161.7,433.1c-0.1-0.2-0.1-0.4-0.1-0.6c0.2-1.5-1.2-4.5-2.1-6c-0.2-0.4-0.2-1,0.2-1.3
														c0.3-0.3,0.8-0.2,1.1,0.2c0.3,0.5,2.8,4.6,2.4,7.4c-0.1,0.5-0.5,0.8-0.9,0.8C162,433.4,161.8,433.3,161.7,433.1z"/>
												</g>
											</g>
										</g>
									</g>
								</g>
								<g>
									<g>
										<g>
											<g>
												<g>
													<g>
														<path fill="#FFFFFF" d="M157.5,424.3c-0.5-0.9-1.1-2.1-1.8-3.9c-1-2.7-1.1-5.2-0.1-6.7c0.6-0.9,1.5-1.2,2.4-1
															c0.9,0.2,1.6,0.8,2.2,1.8c0,0,0,0,0,0.1c1.7,3.2,0.6,9.6,0.5,10.3l-1.1-0.3c0,0,0,0,0,0l-1.2,1.4
															C158.5,425.9,158.1,425.4,157.5,424.3z M158.8,415.6C158.8,415.6,158.8,415.6,158.8,415.6c-0.3-0.6-0.6-0.8-1.1-0.9
															c-0.3-0.1-0.6,0-0.8,0.3c-0.5,0.7-0.6,2.4,0.3,4.6c0.8,2.2,1.5,3.5,2,4.2C159.5,421.8,159.9,417.5,158.8,415.6z"/>
													</g>
												</g>
											</g>
										</g>
									</g>
								</g>
								<g>
									<g>
										<g>
											<g>
												<g>
													<g>
														<path fill="#FFFFFF" d="M159.8,426.7l0.9-1.7c1.4,1.1,3.8,1.3,4.8,0.5c0.2-0.2,0.5-0.5,0.2-1.4
															c-0.1-0.6-0.4-0.8-0.6-0.8c-1-0.4-2.9,0.7-3.8,1.5l-0.9-1.6c0.3-0.3,3.3-2.6,5.3-1.7c0.5,0.2,1.3,0.8,1.6,2.2
															c0.5,2-0.3,3.1-0.8,3.5C164.8,428.6,161.6,428.1,159.8,426.7z"/>
													</g>
												</g>
											</g>
										</g>
									</g>
								</g>
							</g>
							<g>
								<g>
									<g>
										<g>
											<g>
												<g>
													<path fill="#EA8400" d="M135.1,421.6l-0.7-1.4c2.1,0.4,4.8,0.1,7.6-2.3c3.8-3.2,4.9-7.9,5.2-10.9
														c0.4-0.2,0.8-0.4,1.2-0.6c-0.2,3.1-1.3,8.8-5.8,12.6C139.9,421.4,137.2,421.8,135.1,421.6z"/>
												</g>
											</g>
										</g>
									</g>
								</g>
							</g>
							<g>
								<g>
									<g>
										<g>
											<g>
												<path fill="#FFFFFF" d="M157,428.7c-0.2-0.3-0.2-0.8,0.1-1.1c0.3-0.4,0.8-0.4,1.1,0l2.2,2.5c0.3,0.3,0.3,0.9,0,1.3
													c-0.3,0.4-0.8,0.4-1.1,0l-2.2-2.5C157.1,428.8,157.1,428.8,157,428.7z"/>
											</g>
										</g>
									</g>
								</g>
							</g>
							<g>
								<g>
									<g>
										<g>
											<g>
												<path fill="#FFFFFF" d="M157.2,432.7c-0.2-0.3-0.2-0.8,0.1-1.1c0.3-0.4,0.8-0.4,1.1,0l2.2,2.5c0.3,0.3,0.3,0.9,0,1.3
													c-0.3,0.4-0.8,0.4-1.1,0l-2.2-2.5C157.3,432.9,157.2,432.8,157.2,432.7z"/>
											</g>
										</g>
									</g>
								</g>
							</g>
							<g>
								<g>
									<g>
										<g>
											<g>
												<path fill="#FFFFFF" d="M157.4,436.7c-0.2-0.3-0.2-0.8,0.1-1.1c0.3-0.4,0.8-0.4,1.1,0l2.2,2.5c0.3,0.3,0.3,0.9,0,1.3
													c-0.3,0.4-0.8,0.4-1.1,0l-2.2-2.5C157.4,436.8,157.4,436.8,157.4,436.7z"/>
											</g>
										</g>
									</g>
								</g>
							</g>
							<g>
								<g>
									<g>
										<g>
											<g>
												<path fill="#FFFFFF" d="M157.8,440.8c-0.2-0.3-0.2-0.8,0.1-1.1c0.3-0.4,0.8-0.4,1.1,0l2.2,2.5c0.3,0.3,0.3,0.9,0,1.3
													c-0.3,0.4-0.8,0.4-1.1,0l-2.2-2.5C157.9,441,157.8,440.9,157.8,440.8z"/>
											</g>
										</g>
									</g>
								</g>
							</g>
							<g>
								<g>
									<g>
										<g>
											<g>
												<path fill="#FFFFFF" d="M158.6,445.1c-0.2-0.3-0.2-0.8,0.1-1.1c0.3-0.4,0.8-0.4,1.1,0l2.2,2.5c0.3,0.3,0.3,0.9,0,1.3
													c-0.3,0.4-0.8,0.4-1.1,0l-2.2-2.5C158.6,445.2,158.6,445.2,158.6,445.1z"/>
											</g>
										</g>
									</g>
								</g>
							</g>
						</g>
						<g>
							<g>
								<g>
									<g>
										<path fill="#2F72FB" d="M228.9,317.8c0,0.1,0,0.2,0,0.3c0,0-0.2,0.5-0.7,1.5c-3.1,6.8-16.5,35.7-33.1,62.9
											c-2.4,3.9-4.9,7.8-7.4,11.6c-1.1,1.7-2.2,3.3-3.3,4.9c-4.9,7-8.9,11.3-13.6,15c-0.5,0.4-1,0.8-1.5,1.1c-1,0.7-2,1.4-3,2.1
											c-0.5,0.3-1,0.6-1.5,1c0,0-7.5-9.4-11-18.5c0,0,1-1.9,2.5-5c0.3-0.6,0.6-1.2,1-1.9c1.1-2.1,2.3-4.5,3.6-7.2
											c6-12,14.2-28.5,17.2-36.2c2.2-5.6,4.9-11.8,7.8-17.9c0.6-1.2,1.1-2.3,1.7-3.5c0.1-0.1,0.1-0.3,0.2-0.4
											c4-7.9,8.5-15.4,13.2-20.9l-10.7-75.3l-0.7-4.7l23.7-10l1.4-0.6l5.6-2.4c0,0,0.5,2.5,1.2,6.7c0.1,0.5,0.2,1.1,0.3,1.6
											C225,241.5,232,289.8,228.9,317.8z"/>
									</g>
								</g>
							</g>
						</g>
						<g>
							<g>
								<g>
									<path fill="#3136DD" d="M170.8,414c-0.5,0.4-1,0.8-1.5,1.1l-9.2-14.5l-0.8-1.3l-2.9-4.6c0.3-0.6,0.6-1.2,1-1.9l2.9,4.5
										l0.8,1.3L170.8,414z"/>
								</g>
							</g>
						</g>
						<g>
							<g>
								<g>
									<g>
										<path fill="#3136DD" d="M228.9,317.8c0,0.1,0,0.2,0,0.3c0,0-0.2,0.5-0.7,1.5c-5.4-1.2-9.5-4.4-9.7-4.6
											c-0.4-0.3-0.5-0.9-0.2-1.3c0.2-0.4,0.7-0.6,1.1-0.3C219.4,313.5,223.6,316.7,228.9,317.8z"/>
									</g>
								</g>
							</g>
						</g>
						<g>
							<g>
								<g>
									<g>
										<path fill="#3136DD" d="M207.4,309.4c-0.1,0.1-12,14.2-46.3,89.3c-0.3,0.7-0.6,1.4-0.9,2l-0.8-1.3c0.3-0.7,0.6-1.4,0.9-2
											c31.8-69.6,44-86.3,46-88.7c-2.8-12.3-11.4-75.4-11.7-78.1c-0.1-0.4,0.2-0.8,0.5-0.9c0.3-0.1,0.7,0.2,0.7,0.6
											c0.1,0.7,9.1,67.2,11.8,78.3C207.6,308.9,207.5,309.2,207.4,309.4z"/>
									</g>
								</g>
							</g>
						</g>
						<g>
							<g>
								<g>
									<g>
										<path fill="#3136DD" d="M195.1,382.5c-3.5,5.7-7,11.2-10.7,16.5c-0.7-11.6-2.5-49.7,1.6-67.5c0.5-2.1,1.1-4,1.7-5.4
											l0.2,1.6L195.1,382.5z"/>
									</g>
								</g>
							</g>
						</g>
					</g>
					<g>
						<g>
							<g>
								<g>
									<g>
										<path fill="#2F72FB" d="M150.7,195.3c0,0-1.8,20.2,2.1,31.4c3.8,11.2,53.7,5.4,66.4-4.7c5.2-4.1-5.9-42.4-5.9-42.4
											L150.7,195.3z"/>
									</g>
								</g>
							</g>
						</g>
						<g>
							<g>
								<g>
									<g>
										<g>
											<path fill="#3136DD" d="M221.9,222.1c-0.8-0.2-1.5-0.4-2.2-0.7c-1.1-0.5-2.2-1.1-3.3-1.9c-1.1-0.8-2.1-1.8-2.9-2.8
												c-5.5-6.6-7.1-16.6-7.2-17.1c-0.1-0.4,0.2-0.8,0.5-0.9c0.3-0.1,0.7,0.2,0.7,0.6c0,0.1,1.7,10.5,7.3,16.8
												c0.7,0.8,1.5,1.5,2.3,2.1c1,0.8,2,1.3,3.1,1.8c0.5,0.2,0.9,0.3,1.4,0.4C221.7,221,221.8,221.6,221.9,222.1z"/>
										</g>
									</g>
								</g>
							</g>
						</g>
						<g>
							<g>
								<g>
									<g>
										<g>
											<path fill="#3136DD" d="M191.1,227.8c0,0.4-0.3,0.7-0.6,0.8c0,0,0,0,0,0c-0.4,0-0.7-0.3-0.7-0.7
												c-0.1-2.8-0.2-5.6-0.4-8.4c0-0.5-0.1-1-0.1-1.5c-0.5-9.2-1.1-18.3-1.6-24.6c0-0.5-0.1-1-0.1-1.5
												c-0.1-1.4-0.2-2.6-0.3-3.7c0.4-0.1,0.8-0.2,1.3-0.2c0.1,1.1,0.2,2.3,0.3,3.7c0,0.5,0.1,1,0.1,1.5
												c0.5,6.3,1.1,15.3,1.6,24.4c0,0.5,0.1,1,0.1,1.5C190.9,222,191,224.9,191.1,227.8z"/>
										</g>
									</g>
								</g>
							</g>
						</g>
						<g>
							<g>
								<g>
									<g>
										<g>
											<path fill="#3136DD" d="M193,218c-0.2,0.1-1.1,0.6-2.2,1c-0.4,0.1-0.8,0.3-1.3,0.4c-0.4,0.1-0.8,0.2-1.2,0.2
												c-0.8,0.1-1.5,0-2.1-0.4c-0.8-0.4-1.3-1.2-1.5-2.3c-0.5-2.8-1.4-14.6-2.1-22.9c0-0.5-0.1-1-0.1-1.5
												c-0.1-1.3-0.2-2.5-0.3-3.6c0.4-0.1,0.8-0.1,1.3-0.2c0.1,1,0.2,2.3,0.3,3.6c0,0.5,0.1,1,0.1,1.5c0.7,8.3,1.6,20,2.1,22.7
												c0.1,0.6,0.3,1,0.8,1.3c0.7,0.4,1.7,0.3,2.7,0c0.4-0.1,0.9-0.3,1.3-0.4c0.7-0.3,1.4-0.6,1.8-0.8c0.3-0.2,0.7,0,0.9,0.3
												C193.4,217.4,193.3,217.9,193,218z"/>
										</g>
									</g>
								</g>
							</g>
						</g>
					</g>
					<g>
						<g>
							<g>
								<g>
									<g>
										<polygon fill="#AD5000" points="171.6,428 172.8,439.9 185.6,439.9 186.4,427.3 										"/>
									</g>
								</g>
							</g>
						</g>
						<g>
							<g>
								<g>
									<g>
										<path fill="#2F72FB" d="M187.7,220.9V426l-0.2,3.2h-19c-0.2-1.5-0.7-3.9-1.3-6.9c-0.1-0.7-0.3-1.4-0.4-2.1
											c-2.5-12.5-6.7-33.9-7.5-52.5c-1.1-26.5-0.8-60.9-0.8-60.9c-2.2-19.7-5.6-62.5-7.3-84.3c0-0.5-0.1-1-0.1-1.5
											c-0.6-7.3-0.9-12-0.9-12c3.1-1.5,8.6-0.5,14.5,1.5c0.4,0.1,0.9,0.3,1.3,0.4C176.6,214.6,187.7,220.9,187.7,220.9z"/>
									</g>
								</g>
							</g>
						</g>
						<g>
							<g>
								<g>
									<path fill="#3136DD" d="M187.7,420.2v2.1h-20.4c-0.1-0.7-0.3-1.4-0.4-2.1H187.7z"/>
								</g>
							</g>
						</g>
						<g>
							<g>
								<g>
									<g>
										<path fill="#3136DD" d="M187.7,311.3v2c-2.2,0.7-4.8,0.9-7.1,0.9c-4.4,0-8.2-0.7-8.5-0.8c-0.4-0.1-0.7-0.6-0.7-1.1
											c0.1-0.5,0.5-0.9,0.9-0.8C172.4,311.5,181.7,313.3,187.7,311.3z"/>
									</g>
								</g>
							</g>
						</g>
						<g>
							<g>
								<g>
									<g>
										<path fill="#3136DD" d="M170.5,422.3h-1.3c-0.1-0.7-0.2-1.4-0.3-2.1c-1.7-10.6-4.7-30.5-6.3-43.4
											c-2.2-18-1.2-67.9-1.1-69.8c-1.7-17.2-5.1-75.9-5.2-76.5c0-0.4,0.2-0.8,0.6-0.8c0.4,0,0.7,0.3,0.7,0.7
											c0,0.6,3.5,59.5,5.2,76.5c0,0,0,0.1,0,0.1c0,0.5-1.1,51.5,1.1,69.6c1.6,13,4.7,33,6.4,43.6
											C170.3,420.9,170.4,421.6,170.5,422.3z"/>
									</g>
								</g>
							</g>
						</g>
						<g>
							<g>
								<g>
									<g>
										<g>
											<g>
												<g>
													<path fill="#FDB105" d="M190.5,460.3c0,0.1,0,0.3,0,0.4c0,0.6,0,1.2-0.1,1.6c-0.1,1-0.1,1.7-0.1,1.7h-28.8
														c0,0-0.1-1.3,0-3.3c0.2-3.5,1.2-9,5.1-12.7c5.4-5,3.3-4,4.5-6.3c0.1-0.3,1.1-4.1,1.2-4.4c0.9-2.4,1.8-3.5,7-3.5
														c6.8,0,7.5,4,8.2,6c0.3,0.9,0.7,2.7,1.1,4.8c0.2,0.9,0.3,1.8,0.5,2.7c0.4,2.4,0.8,4.8,1.1,6.8
														C190.5,456.3,190.5,458.5,190.5,460.3z"/>
												</g>
											</g>
										</g>
									</g>
								</g>
								<g>
									<g>
										<g>
											<g>
												<g>
													<g>
														<path fill="#EA8400" d="M190.5,460.3c0,0.1,0,0.3,0,0.4c0,0.6,0,1.2-0.1,1.6c-1.4-1.2-2.4-2.7-3-4.6
															c-1.8-5.8,1-12.7,1.1-13l0.1,0c0.2,0.9,0.3,1.8,0.5,2.7c-0.6,2.4-1.4,6.3-0.4,9.7
															C189.1,458.3,189.7,459.4,190.5,460.3z"/>
													</g>
												</g>
											</g>
										</g>
									</g>
								</g>
								<g>
									<g>
										<g>
											<g>
												<g>
													<path fill="#EA8400" d="M190.5,460.7c0,2-0.2,3.3-0.2,3.3h-28.8c0,0-0.1-1.3,0-3.3H190.5z"/>
												</g>
											</g>
										</g>
									</g>
								</g>
							</g>
							<g>
								<g>
									<g>
										<g>
											<g>
												<g>
													<g>
														<path fill="#FFFFFF" d="M176.2,438.8c-0.1,0-0.2,0-0.3-0.1c-0.7-0.4-7.2-3.9-7.7-7.7c-0.1-0.7,0-1.8,0.9-2.9
															c0.9-1,1.8-1,2.3-0.8c2.9,0.9,5.1,8.6,5.5,10.1c0.1,0.4,0,0.8-0.2,1C176.6,438.7,176.4,438.8,176.2,438.8z
															 M170.9,429.3c-0.2,0-0.4,0.1-0.6,0.4c-0.4,0.5-0.4,0.8-0.4,1.1c0.2,1.6,2.7,3.6,4.9,5.1c-1-3-2.5-6.2-3.7-6.5
															C171,429.3,170.9,429.3,170.9,429.3z"/>
													</g>
												</g>
											</g>
										</g>
									</g>
								</g>
								<g>
									<g>
										<g>
											<g>
												<g>
													<g>
														<path fill="#FFFFFF" d="M177.6,438.8c-0.2,0-0.4-0.1-0.5-0.2c-0.2-0.3-0.3-0.7-0.2-1c0.4-1.5,2.6-9.2,5.5-10.1
															c0.6-0.2,1.4-0.2,2.3,0.8c0.9,1,1,2.1,0.9,2.9c-0.5,3.7-6.9,7.3-7.7,7.7C177.9,438.8,177.7,438.8,177.6,438.8z
															 M183,429.3c-0.1,0-0.1,0-0.2,0c-1.2,0.4-2.7,3.6-3.7,6.5c2.2-1.5,4.7-3.5,4.9-5.1c0-0.3,0-0.6-0.4-1.1
															C183.3,429.4,183.1,429.3,183,429.3z"/>
													</g>
												</g>
											</g>
										</g>
									</g>
								</g>
								<g>
									<g>
										<g>
											<g>
												<g>
													<g>
														<path fill="#FFFFFF" d="M176.9,436c0,0-1.3-0.8-1.4,1.4c-0.1,1.8,1,2.2,1.4,1.9c0,0,0.9,0.3,1.4-0.5
															C178.7,437.9,178.4,435.1,176.9,436z"/>
													</g>
												</g>
											</g>
										</g>
									</g>
								</g>
								<g>
									<g>
										<g>
											<g>
												<g>
													<g>
														<path fill="#FFFFFF" d="M171,442c-0.2,0-0.3-0.1-0.5-0.2c-0.4-0.3-0.4-0.9-0.2-1.4c2.6-4.1,6.6-3.2,6.8-3.2
															c0.4,0.1,0.7,0.6,0.6,1.2c-0.1,0.5-0.5,0.9-1,0.8c-0.1,0-3.2-0.7-5.1,2.5C171.5,441.8,171.3,442,171,442z"/>
													</g>
												</g>
											</g>
										</g>
									</g>
								</g>
								<g>
									<g>
										<g>
											<g>
												<g>
													<g>
														<path fill="#FFFFFF" d="M183.6,442.9c-0.3,0-0.6-0.2-0.7-0.6c-1.3-3.5-6-4.3-6-4.3c-0.4-0.1-0.8-0.6-0.7-1.1
															c0.1-0.5,0.5-0.9,0.9-0.8c0.2,0,5.6,1,7.3,5.5c0.2,0.5,0,1.1-0.4,1.3C183.8,442.9,183.7,442.9,183.6,442.9z"/>
													</g>
												</g>
											</g>
										</g>
									</g>
								</g>
							</g>
							<g>
								<g>
									<g>
										<g>
											<g>
												<path fill="#FFFFFF" d="M180.2,444.5c-0.1,0-0.1,0-0.2,0c-3.7-1.1-6.7-0.2-6.7-0.2c-0.4,0.1-0.9-0.2-1-0.7
													c-0.1-0.5,0.1-1.1,0.6-1.2c0.1,0,3.4-1.1,7.5,0.2c0.4,0.1,0.7,0.7,0.6,1.2C180.9,444.2,180.6,444.5,180.2,444.5z"/>
											</g>
										</g>
									</g>
								</g>
							</g>
							<g>
								<g>
									<g>
										<g>
											<g>
												<path fill="#FFFFFF" d="M179,447.6c-0.1,0-0.1,0-0.2,0c-3.6-1.1-6.7-0.2-6.7-0.2c-0.4,0.1-0.9-0.2-1-0.7
													c-0.1-0.5,0.1-1.1,0.6-1.2c0.1,0,3.4-1.1,7.5,0.2c0.4,0.1,0.7,0.7,0.6,1.2C179.7,447.3,179.3,447.6,179,447.6z"/>
											</g>
										</g>
									</g>
								</g>
							</g>
							<g>
								<g>
									<g>
										<g>
											<g>
												<path fill="#FFFFFF" d="M177.5,451.1c-0.1,0-0.1,0-0.2,0c-3.6-1.1-6.7-0.2-6.7-0.2c-0.4,0.1-0.9-0.2-1-0.7
													c-0.1-0.5,0.1-1.1,0.6-1.2c0.1,0,3.4-1.1,7.5,0.2c0.4,0.1,0.7,0.7,0.6,1.2C178.2,450.8,177.9,451.1,177.5,451.1z"/>
											</g>
										</g>
									</g>
								</g>
							</g>
						</g>
						<g>
							<g>
								<g>
									<g>
										<g>
											<path fill="#3136DD" d="M169.7,199.7c-0.1,0.4-0.9,5.8-3.5,11.2c-1.5,3.2-3.7,6.5-6.6,8.7c-2.4,1.9-5.2,2.8-8.2,2.8
												c0-0.5-0.1-1-0.1-1.5c2.8,0,5.3-0.9,7.6-2.6c2.6-2,4.6-4.9,6-7.8c2.7-5.4,3.5-11,3.6-11.1c0.1-0.4,0.4-0.7,0.7-0.6
												C169.5,198.8,169.7,199.2,169.7,199.7z"/>
										</g>
									</g>
								</g>
							</g>
						</g>
					</g>
				</g>
				<g>
					<g>
						<g>
							<path fill="#FDB105" d="M254.8,128c0.1,3.6-3.3,8.5-8.1,13.5c-0.3,0.3-0.7,0.7-1,1c-5.3,5.4-12.1,10.7-17.9,14.7
								c-5.6,3.8-13.4,8.1-20.8,9.3c-7,1.1-13.6-0.7-17.6-8.3c-0.5-0.9-0.9-1.8-1.3-2.8c-6.5-16.3-2.7-44-2.7-44l16.6-35.2
								c11.8,12.6,8.8,45.3,13.1,49.1c0.1,0.1,0.1,0.1,0.2,0.2c0.5,0.4,1.2,0.6,1.9,0.7c4.7,0.5,13.1-5.4,21.4-8
								c0.5-0.1,0.9-0.3,1.4-0.4c0.4-0.1,0.9-0.2,1.3-0.3C248.8,115.7,254.7,120.3,254.8,128z"/>
						</g>
					</g>
					<g>
						<g>
							<path fill="#EA8400" d="M246.7,141.5c-0.3,0.3-0.7,0.7-1,1c-3.5-3.9-5.8-9.2-6.7-15.9c-0.4-3.1-0.5-6.1-0.4-8.6
								c0.5-0.1,0.9-0.3,1.4-0.4c-0.1,2.5-0.1,5.6,0.4,8.7C241.3,132.8,243.4,137.8,246.7,141.5z"/>
						</g>
					</g>
					<g>
						<g>
							<path fill="#EA8400" d="M217.3,126.1c-3.1,2.4-7.2,6.3-9.2,10.3c-0.1,0.3-0.3,0.4-0.6,0.4c-0.1,0-0.2,0-0.3-0.1
								c-0.3-0.2-0.4-0.7-0.2-1.1c1.5-3.1,4.1-6,6.6-8.3c-2.9,0.7-5.6,1.9-5.6,1.9c-0.1,0-0.2,0.1-0.2,0.1c-0.3,0-0.5-0.2-0.6-0.5
								c-0.1-0.4,0-0.9,0.4-1c0.2-0.1,4.3-1.9,7.9-2.3C215.9,125.8,216.5,126,217.3,126.1z"/>
						</g>
					</g>
					<g>
						<g>
							<path fill="#EA8400" d="M207.1,166.4c-7,1.1-13.6-0.7-17.6-8.3c-0.5-0.9-0.9-1.8-1.3-2.8c2.4-1,7.3-1.9,13.5,2.5
								C205.6,160.6,206.9,163.8,207.1,166.4z"/>
						</g>
					</g>
					<g>
						<g>
							<g>
								<path fill="#AD5000" d="M267.9,102c0,0-6,24.6-16.9,27.6l-5-7.6C245.9,122,256.4,103.3,267.9,102z"/>
							</g>
						</g>
						<g>
							<g>
								<g>
									<g>
										<path fill="#594B54" d="M245.6,128.1l0.8,0.6c0.4,0.3,1,0.2,1.4-0.2c3.5-3.7,20.4-21.8,23.3-25.4c0.3-0.3,0.4-0.8,0.3-1.3
											l-2.6-14.9c-0.1-0.4-0.2-0.7-0.5-0.9l-1.2-0.9l2.7,16L245.6,128.1z"/>
									</g>
								</g>
							</g>
							<g>
								<g>
									<g>
										<path fill="#1F141D" d="M245.6,127.9l-3-14.7c-0.1-0.6,0.2-1.5,0.7-2.1l23-25.5c0.5-0.6,1-0.6,1.2,0l3,14.7
											c0.1,0.6-0.2,1.5-0.7,2.1l-23,25.5C246.2,128.5,245.7,128.5,245.6,127.9z"/>
									</g>
								</g>
							</g>
							<g>
								<g>
									<g>
										<path fill="#594B54" d="M249.7,120.9l-2.2-10.7c-0.1-0.6,0.2-1.5,0.7-2.1l17-18.9c0.5-0.6,1-0.6,1.2,0l2.2,10.7
											c0.1,0.6-0.2,1.5-0.7,2.1l-17,18.9C250.3,121.5,249.8,121.5,249.7,120.9z"/>
									</g>
								</g>
							</g>
							<g>
								<g>
									<g>
										<path fill="#594B54" d="M246.6,119.7c-0.8,0.9-1.6,0.9-1.8,0c-0.2-0.9,0.3-2.3,1.1-3.2c0.8-0.9,1.6-0.9,1.8,0
											C247.9,117.4,247.4,118.8,246.6,119.7z"/>
									</g>
								</g>
							</g>
						</g>
						<g>
							<g>
								<g>
									<path fill="#AD5000" d="M247.5,106.9c0,0-2.1-5.6,1-8.4c3-2.8,9.4-3.5,9.4-3.5c2.5,2.3-1.7,5-6.9,7.7L247.5,106.9z"/>
								</g>
							</g>
						</g>
						<g>
							<g>
								<g>
									<g>
										<g>
											<g>
												<path fill="#AD5000" d="M257.6,118.1c0,0,3.2,1.7,4.2-0.4c1-2.2-0.8-7.6-1.6-9.4c-0.8-1.9-1.6,2.8-1.2,5
													c0.2,1.2,0.1,3.2,0.1,3.2L257.6,118.1z"/>
											</g>
										</g>
									</g>
								</g>
							</g>
							<g>
								<g>
									<g>
										<g>
											<g>
												<path fill="#AD5000" d="M261.9,112.8c0,0,3.4,1.7,4.6-0.9c1.2-2.6-1-9-1.9-11.2c-0.9-2.2-2.1,3.4-1.4,5.9
													c0.6,2.5-0.1,3.6-0.1,3.6L261.9,112.8z"/>
											</g>
										</g>
									</g>
								</g>
							</g>
							<g>
								<g>
									<g>
										<g>
											<g>
												<path fill="#AD5000" d="M264.2,110.1c0,0,3,1.5,4.1-0.8c1.1-2.3-0.9-7.9-1.7-9.9c-0.8-1.9-1.8,3-1.3,5.2
													c0.5,2.2-0.1,3.1-0.1,3.1L264.2,110.1z"/>
											</g>
										</g>
									</g>
								</g>
							</g>
							<g>
								<g>
									<g>
										<g>
											<g>
												<path fill="#AD5000" d="M259.6,116.7c0,0,3.4,1.7,4.6-0.9c1.2-2.6-1-9-1.9-11.2c-0.9-2.2-2.1,3.4-1.4,5.9
													c0.6,2.5-0.1,3.6-0.1,3.6L259.6,116.7z"/>
											</g>
										</g>
									</g>
								</g>
							</g>
						</g>
					</g>
				</g>
				<g>
					<g>
						<g>
							<g>
								<path fill="#FFFFFF" d="M149.9,213l-1.6,11.5c0,0,18.3,4.9,29.8,1.3c11.5-3.5,39.3-6.8,44-7l-3-15.3
									C219,203.5,183.4,216.8,149.9,213z"/>
							</g>
						</g>
					</g>
					<g>
						<g>
							<g>
								<g>
									<path fill="#EA8400" d="M188.9,68.9c0,0,6.8-16.4-7.6-25.5c-10.1-6.4-29.5-7.5-35.5,7c-5.5,13.6,6.9,25,6.9,25
										S179.3,82.2,188.9,68.9z"/>
								</g>
							</g>
						</g>
					</g>
					<g>
						<g>
							<g>
								<path fill="#1F141D" d="M165.5,49.9c0,0-12.4,2-7.9,9.9c2.4,4.2,15.9,6.5,15.9,6.5S176,51.8,165.5,49.9z"/>
							</g>
						</g>
					</g>
					<g>
						<g>
							<g>
								<g>
									<path fill="#FDB105" d="M217.6,199.4c0,0-46.1,18.4-66,9.2c0,0-6.2-2.3-8.7-16.8c-0.1-0.5-0.2-1-0.2-1.5
										c-1.1-7.2-1.2-17.1,0.5-30.9c2.1-16.5-0.8-24.9-2.1-41.3c0-0.6-0.1-1.2-0.1-1.8c-0.1-1.8-0.3-3.6-0.4-5.6
										c-1.3-21.6-7.1-30.9,1.9-37.3c9.1-6.4,20.9-11.4,20.9-11.4s10.1,3.8,17.2,0c0,0,10.8,6.3,19.2,9.9
										c8.3,3.6,5.6,29.8,8.2,44.9c2.6,15.1,7.1,27,11.1,52C222.8,191.8,217.6,199.4,217.6,199.4z"/>
								</g>
							</g>
						</g>
					</g>
					<g>
						<g>
							<g>
								<path fill="#EA8400" d="M218.7,166.7c-0.3,0-0.6-0.3-0.7-0.7c-0.4-6.3-4.4-22.3-6.8-31.8c-0.5-1.9-0.9-3.5-1.2-4.7
									c-1.7-7.2-3.7-24-3.8-24.7c-0.1-0.4,0.2-0.8,0.6-0.9c0.4-0.1,0.7,0.2,0.7,0.7c0,0.2,2,17.4,3.8,24.5
									c0.3,1.2,0.7,2.8,1.2,4.6c2.4,9.6,6.5,25.7,6.9,32.2C219.3,166.3,219.1,166.7,218.7,166.7
									C218.7,166.7,218.7,166.7,218.7,166.7z"/>
							</g>
						</g>
					</g>
					<g>
						<g>
							<g>
								<g>
									<path fill="#EA8400" d="M219.9,191.8c0,0,2,7.2-0.8,12c0,0-41.4,17.1-69.2,9.1c0,0-2.5-3.6-3.2-11
										C146.7,202,180.1,211.9,219.9,191.8z"/>
								</g>
							</g>
						</g>
					</g>
					<g>
						<g>
							<g>
								<g>
									<path fill="#EA8400" d="M177.1,85.3c7.7,0,10.1-8.2,10.1-8.3c0.1-0.3-0.1-0.7-0.3-0.8c-0.3-0.1-0.5,0.1-0.6,0.4l0,0
										c-0.1,0.3-2.4,8-9.9,7.4c-7.8-0.6-17.9-6.8-18-6.8c-0.2-0.2-0.6,0-0.7,0.3c-0.1,0.3,0,0.7,0.2,0.8c0.4,0.3,10.4,6.4,18.4,7
										C176.5,85.2,176.8,85.3,177.1,85.3z"/>
								</g>
							</g>
						</g>
					</g>
					<g>
						<g>
							<g>
								<g>
									<path fill="#EA8400" d="M204.7,156.3c0,0,5.3,19.4,3.4,30.2c0,0-17.5,12.4-43.7,6.2c0,0-1.5-19.2-2.5-31.5
										C161.9,161.1,188.6,156,204.7,156.3z"/>
								</g>
							</g>
						</g>
					</g>
					<g>
						<g>
							<g>
								<g>
									<path fill="#FFFFFF" d="M174.1,171.2c0.2,0,0.4-0.2,0.4-0.4c1.6-41.5-8.1-103.7-8.2-104.3c0-0.2-0.2-0.4-0.4-0.4
										c-0.2,0-0.3,0.3-0.3,0.5c0.1,0.6,9.8,62.7,8.2,104.1C173.7,171,173.8,171.2,174.1,171.2C174,171.2,174,171.2,174.1,171.2z"
										/>
								</g>
							</g>
						</g>
					</g>
					<g>
						<g>
							<g>
								<g>
									<path fill="#FFFFFF" d="M197.3,168.4C197.3,168.4,197.3,168.4,197.3,168.4c0.2,0,0.4-0.2,0.4-0.5
										c-1.3-50.1-15.5-101.2-15.7-101.7c-0.1-0.2-0.3-0.4-0.5-0.3c-0.2,0.1-0.3,0.3-0.2,0.6c0.1,0.5,14.4,51.5,15.6,101.4
										C196.9,168.2,197.1,168.4,197.3,168.4z"/>
								</g>
							</g>
						</g>
					</g>
					<g>
						<g>
							<g>
								<g>
									<path fill="#1F141D" d="M195.2,69.5c0,0,2.7,31.2-7.5,52.5c-13.7,28.5-44.5,37.5-44.5,37.5s-1.5-4.7,0.1-11.5
										c0,0,28.6-6.3,40.5-34.8c9.7-23.1,5.1-46.3,5.1-46.3S193.1,67,195.2,69.5z"/>
								</g>
							</g>
						</g>
					</g>
					<g>
						<g>
							<g>
								<g>
									<g>
										<g>
											<g>
												<path fill="#1F141D" d="M171.5,147.8c0.2,0,0.4,0,0.5,0c0.9-0.1,1.8-0.2,2.6-0.4c0.5-0.1,0.9-0.2,1.4-0.4
													c0.7-0.2,1.4-0.5,2.1-0.8c0.5-0.2,1-0.4,1.4-0.7c6.7-3.5,12.2-10.4,14.9-18.5c0.2-0.6,0.4-1.2,0.5-1.8
													c0.3-1.1,0.5-2.1,0.7-3.2c0.1-0.5,0.2-1.1,0.2-1.6c0.1-1,0.2-2,0.2-3c0-0.2,0-0.4,0-0.6c0-10.1-12.3-16.2-12.3-16.2
													l-3.3,6.8l-0.8,1.6l-5.9,12.2l-9.7,7.5l-1.3,1l-5.7,4.5C157.2,134.1,163,148.3,171.5,147.8z"/>
											</g>
										</g>
									</g>
								</g>
							</g>
						</g>
						<g opacity="0.5">
							<g>
								<g>
									<g>
										<g>
											<path fill="#594B54" d="M174.6,147.3c0.5-0.1,0.9-0.2,1.4-0.4c-2.3-7.6-7.7-14.1-11.8-18.2l-1.3,1
												C166.9,133.6,172.3,140,174.6,147.3z"/>
										</g>
									</g>
								</g>
							</g>
						</g>
						<g>
							<g opacity="0.5">
								<g>
									<g>
										<g>
											<path fill="#594B54" d="M184.7,115.2c3.7,3.9,7.4,6.2,10.9,6.8c0.1-0.5,0.2-1.1,0.2-1.6c-6.3-1-12-8-15.4-12.9l-0.8,1.6
												C181.1,110.9,182.8,113.1,184.7,115.2z"/>
										</g>
									</g>
								</g>
							</g>
							<g>
								<g>
									<g>
										<g>
											<g>
												<path fill="#594B54" d="M183.8,100.6c0,0,9.8,6.1,4.2,16.3c-5.6,10.2-15.4,22.7-21.3,23.4c-6,0.7-9.5-6.1-9.5-6.1
													L183.8,100.6z"/>
											</g>
										</g>
									</g>
								</g>
							</g>
						</g>
						<g opacity="0.5">
							<g>
								<g>
									<g>
										<g>
											<path fill="#594B54" d="M178.1,146.1c0.5-0.2,1-0.4,1.4-0.7c0.1-3.6,1-8.1,4-12.2c3.2-4.3,7.5-5.8,10.9-6.3
												c0.2-0.6,0.4-1.2,0.5-1.8c-3.7,0.4-8.8,1.9-12.5,7C178.9,136.9,178.1,142.2,178.1,146.1z"/>
										</g>
									</g>
								</g>
							</g>
						</g>
					</g>
				</g>
				<g>
					<g>
						<g>
							<g>
								<g>
									<g>
										<g>
											<g>
												<g>
													<g>
														<g>
															<g>
																<g>
																	<path fill="#AD5000" d="M180.3,59.8l-1,5.2c-0.6,0.4-1.3,0.5-1.8,0.9c-9.3,6.3-16.4-2.7-16.3-3.2l4-20.3l13.2,15.3
																		L180.3,59.8z"/>
																</g>
															</g>
														</g>
													</g>
												</g>
											</g>
											<g>
												<g>
													<g>
														<g>
															<g>
																<g>
																	<g>
																		<g>
																			<path fill="#1F141D" d="M180.3,59.7l-1,5.4c-0.6,0.4-1.2,0.7-1.8,0.9c-5.9-4.8-9.1-14.1-9.1-14.1l10.1,5.9
																				L180.3,59.7z"/>
																		</g>
																	</g>
																</g>
															</g>
														</g>
													</g>
												</g>
											</g>
										</g>
									</g>
								</g>
								<g>
									<path fill="#1F141D" d="M162.8,22.4c0,0-4.6-4.2-2.4-9.2c2.3-5,6.7-3.5,6.7-3.5s0.1-5.5,3.9-7.1c3.9-1.6,6.2,2.8,6.2,2.8
										s1.8-5.3,5.7-4.7c3.9,0.6,3.8,5.1,3.8,5.1s3.8-3.9,7.9-0.8c4.1,3.1,1,7.5,1,7.5s3.6,1.2,2.3,5.8c-0.7,2.4-3.9,3.6-3.9,3.6
										L162.8,22.4z"/>
									<g>
										<path fill="#1F141D" d="M165,20.9c0,0-3.1-0.5-4.6,3.8c-1.5,4.4,1,6.7,1,6.7s-2.6,2.6-1.4,6.2s4.1,2.3,4.1,2.3
											s-3.3,3.5-0.9,6.6c2.4,3.1,6.8-3.7,6.8-3.7L165,20.9z"/>
									</g>
									<g>
										<g>
											<g>
												<g>
													<g>
														<g>
															<g>
																<g>
																	<path fill="#1F141D" d="M190.5,17.1c0,0,10.3,4.5,3.4,12.2C193.8,29.3,189.6,20.5,190.5,17.1z"/>
																</g>
																<g>
																	<path fill="#1F141D" d="M191,26c0,0,3.4-0.5,4.4,2.7c1,3.2-1.7,5-1.7,5s1.7,2.1,0.4,5.6c-1.2,3.5-3.3,2.8-3.3,2.8
																		s2,2.3-0.4,5.3c-2.4,3-5.5-2.5-5.5-2.5L191,26z"/>
																</g>
															</g>
														</g>
													</g>
												</g>
											</g>
										</g>
									</g>
									<g>
										<g>
											<g>
												<g>
													<g>
														<g>
															<g>
																<g>
																	<path fill="#7B3401" d="M189.4,38c0,0,3.1-2.9,3.9,1c0.8,3.9-1.6,10.7-5.2,8.5L189.4,38z"/>
																</g>
															</g>
														</g>
													</g>
												</g>
											</g>
										</g>
									</g>
									<g>
										<g>
											<g>
												<path fill="#AD5000" d="M190.4,51.1c0,0-2,10.8-11.4,8.3c-9.4-2.5-14.1-12.9-14.4-13.4c0,0,0,0,0,0l0.3-2.3l1.6-11.9
													l0.9-6.4c0,0,0.9-11.6,10.3-11.3c6.9,0.2,12.8,3.1,15.2,8.1c0.9,1.8,1.3,3.9,1,6.2l-1.8,11.4l-0.4,2.8L190.4,51.1z"/>
											</g>
										</g>
									</g>
									<g>
										<g>
											<path fill="#1F141D" d="M181.8,50.4c0.7,0.1,1.2-0.1,1.2-0.1c0.1-0.1,0.2-0.2,0.2-0.4c0-0.2-0.2-0.2-0.3-0.2
												c0,0-0.9,0.4-2-0.4c-0.1-0.1-0.3,0-0.4,0.1c-0.1,0.2,0,0.3,0.1,0.4C181,50.2,181.4,50.4,181.8,50.4z"/>
										</g>
									</g>
									<g>
										<path fill="#FFFFFF" d="M187.2,43.8c0,0-4.9-0.1-8.8-2.5c0,0-0.1,6.9,4.7,6.8C186.5,47.9,187.2,43.8,187.2,43.8z"/>
									</g>
									<g>
										<path fill="#1F141D" d="M184.4,40.9c-0.9-0.4-1.7-1-2.2-1.4c-0.2-0.1-0.2-0.4-0.1-0.6c0.1-0.2,0.4-0.3,0.5-0.1
											c1.3,1,2.9,1.8,3.1,1.6l0,0c0,0,0,0,0-0.1c-0.1-4.1-1.7-4.9-1.7-4.9c-0.2-0.1-0.3-0.3-0.2-0.5l0.7-3.6
											c0-0.3,0.3-0.4,0.5-0.4c0.2,0.1,0.3,0.3,0.3,0.6l-0.6,3.2c0.6,0.5,1.8,1.9,1.9,5.6c0,0.6-0.2,0.9-0.4,1
											C185.7,41.3,185,41.2,184.4,40.9z"/>
									</g>
									<g>
										<path fill="#1F141D" d="M181.8,29.3c2-0.5,1.8-4.1-0.3-4.3c-1.8-0.1-4.1,0.1-5.3,1.8C173.9,29.9,179.6,29.8,181.8,29.3
											C181.8,29.3,181.8,29.3,181.8,29.3z"/>
									</g>
									<g>
										<path fill="#1F141D" d="M187,31.2c-1.6-1.3-0.2-4.3,1.6-3.5c1.6,0.7,3.5,1.8,4,3.8C193.6,35.1,188.8,32.6,187,31.2
											C187.1,31.2,187.1,31.2,187,31.2z"/>
									</g>
									<g>
										<g>
											<g>
												<g>
													<g>
														<g>
															<g>
																<g>
																	<path fill="#1F141D" d="M168.3,35.7c-0.2-1.8-1.1-3.8-3.7-5.2c-0.3-1-0.8-2.4-0.5-4.8c0.2-2.3,0-4.7,1.2-7.1
																		c0,0,3-4.7,12.4-4.4c6.9,0.2,12.8,3.1,15.2,8.1c-0.1,0.4-0.4,0.6-0.6,0.9c-2.4,2.4-5.9,1-9.7-1.6
																		c-3.7-2.5-7.7-0.3-7.7-0.3c0.5,0.4,0.8,1,0.7,2.1c0,0.8-0.2,1.5-0.5,2.2c-0.4,0.9-1,1.9-1.7,1.8c0,0,1,2.7-0.4,4.2
																		c-1.3,1.5-1.9,1.5-1.9,1.5s0.9,2.3-0.3,3.8C170.1,37.8,168.3,35.7,168.3,35.7z"/>
																</g>
															</g>
														</g>
													</g>
												</g>
											</g>
										</g>
									</g>
									<g opacity="0.8">
										<g>
											<g>
												<g>
													<g>
														<g>
															<g>
																<g>
																	<g>
																		<path fill="#7B3401" d="M179.6,37.9c-0.1,0.8-1.6,1.1-3.3,0.6c-1.7-0.4-2.9-1.4-2.8-2.2c0.1-0.8,1.6-1.1,3.3-0.6
																			C178.6,36.2,179.8,37.2,179.6,37.9z"/>
																	</g>
																</g>
															</g>
														</g>
													</g>
												</g>
											</g>
										</g>
									</g>
									<g opacity="0.8">
										<g>
											<g>
												<g>
													<g>
														<g>
															<g>
																<g>
																	<g>
																		<path fill="#7B3401" d="M191.8,42.6c-0.2,0-0.5-0.1-0.7-0.1c-1.7-0.4-2.9-1.4-2.8-2.2c0.1-0.8,1.6-1.1,3.3-0.6
																			c0.2,0.1,0.4,0.1,0.7,0.2L191.8,42.6z"/>
																	</g>
																</g>
															</g>
														</g>
													</g>
												</g>
											</g>
										</g>
									</g>
									<g>
										<g>
											<g>
												<g>
													<g>
														<g>
															<g>
																<g>
																	<path fill="#1F141D" d="M168.4,42.4c-0.1,0.1-1.9,3.1-3.8,3.6c0,0,0,0,0,0l0.3-2.3
																		C164.9,43.7,166.5,43.8,168.4,42.4z"/>
																</g>
															</g>
														</g>
													</g>
												</g>
											</g>
										</g>
									</g>
									<g>
										<g>
											<g>
												<g>
													<g>
														<g>
															<g>
																<g>
																	<path fill="#AD5000" d="M168.1,34.5c0,0-2.6-6.7-6.1-2.9c-2.9,3.2-0.5,14,4.4,11.8L168.1,34.5z"/>
																</g>
															</g>
														</g>
													</g>
												</g>
											</g>
										</g>
									</g>
									<g>
										<g>
											<g>
												<g>
													<g>
														<g>
															<g>
																<g>
																	<g>
																		<g>
																			<path fill="#FFFFFF" d="M163.1,40.6c-0.1,0.5,0.2,1.1,0.7,1.2c0.5,0.1,0.9-0.2,1-0.8c0.1-0.5-0.2-1.1-0.7-1.2
																				C163.7,39.7,163.2,40.1,163.1,40.6z"/>
																		</g>
																	</g>
																</g>
															</g>
														</g>
													</g>
												</g>
											</g>
										</g>
									</g>
									<g>
										<g>
											<g>
												<g>
													<g>
														<g>
															<g>
																<g>
																	<path fill="#1F141D" d="M166.3,41.6C166.3,41.6,166.3,41.6,166.3,41.6c0.3,0,0.4-0.1,0.5-0.4
																		c0.5-5-2.7-7.7-2.8-7.8c-0.2-0.1-0.4-0.1-0.5,0.1c-0.1,0.2-0.1,0.5,0.1,0.6l0,0c0.1,0.1,2.9,2.4,2.5,6.9
																		C166,41.3,166.1,41.5,166.3,41.6z"/>
																</g>
															</g>
														</g>
													</g>
												</g>
											</g>
										</g>
									</g>
									<g>
										<g>
											<g>
												<g>
													<g>
														<g>
															<g>
																<g>
																	<path fill="#1F141D" d="M163.3,38c0.1,0,0.2,0,0.3,0l0,0c0.4-0.2,1.5-0.7,2.1-0.4c0.2,0.1,0.4,0,0.5-0.2
																		c0.1-0.2,0-0.5-0.2-0.6c-1.1-0.6-2.6,0.3-2.8,0.4c-0.2,0.1-0.3,0.4-0.2,0.6C163.1,37.8,163.2,37.9,163.3,38z"/>
																</g>
															</g>
														</g>
													</g>
												</g>
											</g>
										</g>
									</g>
								</g>
							</g>
							<g>
								<g>
									<g>
										<g>
											<g>
												<g>
													<g>
														<path fill="#1F141D" d="M180.3,33.4c-0.2,1.1-0.7,1.9-1.3,1.8c-0.5-0.1-0.8-1.1-0.6-2.2c0.2-1.1,0.7-1.9,1.3-1.8
															C180.2,31.3,180.5,32.3,180.3,33.4z"/>
													</g>
												</g>
											</g>
										</g>
									</g>
								</g>
								<g>
									<g>
										<g>
											<g>
												<g>
													<g>
														<path fill="#1F141D" d="M189.6,35.5c-0.2,1.1-0.7,1.9-1.3,1.8c-0.5-0.1-0.8-1.1-0.6-2.2c0.2-1.1,0.7-1.9,1.3-1.8
															C189.5,33.3,189.8,34.3,189.6,35.5z"/>
													</g>
												</g>
											</g>
										</g>
									</g>
								</g>
							</g>
						</g>
					</g>
					<g>
						<g>
							<g>
								<g>
									<path fill="#EA8400" d="M158.1,60.7c0,0,13.3,7,15.9,6.9c0,0-3.4,3.8-8.8,4.4c-7,0.8-18.9-1-18.9-1S149.9,62.4,158.1,60.7z
										"/>
								</g>
							</g>
						</g>
						<g>
							<g>
								<g>
									<path fill="#EA8400" d="M180.3,59.5c0,0,0,6.5-6.3,8.1c0,0,1.2,4.9,6.5,4c5.3-0.9,8.3-4.6,8.3-4.6S184.5,59.5,180.3,59.5z"
										/>
								</g>
							</g>
						</g>
					</g>
				</g>
				<g>
					<g>
						<g>
							<path fill="#FDB105" d="M164,191c0,0-21.2,4.3-35.7-5.9c-8.3-5.8-14.4-16.3-13.3-35c0-0.3,0-0.6,0.1-0.9
								c3.4-50.3,25.2-73.1,25.2-73.1c8.2-2.5,17.2,0.1,4.7,64.1c-3.7,26,17.3,28.1,17.3,28.1L164,191z"/>
						</g>
					</g>
					<g>
						<g>
							<g>
								<path fill="#EA8400" d="M144.4,146.2c-0.1,0-0.1,0-0.2,0c-0.3-0.1-0.5-0.6-0.4-1c0.1-0.3,8.5-31.3,8.6-47.7
									c0-0.4,0.3-0.8,0.7-0.8c0.4,0,0.7,0.4,0.7,0.8c-0.1,16.6-8.6,47.8-8.7,48.1C145,146,144.7,146.2,144.4,146.2z"/>
							</g>
						</g>
						<g>
							<g>
								<path fill="#EA8400" d="M152,110.6c-0.1,0-0.2,0-0.3-0.1c-0.3-0.2-0.4-0.7-0.2-1.1l3.9-7.5c0.2-0.4,0.6-0.5,0.9-0.3
									c0.3,0.2,0.4,0.7,0.2,1.1l-3.9,7.5C152.5,110.4,152.2,110.6,152,110.6z"/>
							</g>
						</g>
					</g>
					<g>
						<g>
							<path fill="#EA8400" d="M159.5,192.7c-0.3,0-0.5-0.2-0.6-0.5c-2.4-6.8-1.9-26-1.9-26.8c0-0.4,0.3-0.8,0.7-0.8
								c0.4,0,0.7,0.4,0.6,0.8c0,0.2-0.6,19.6,1.7,26.1c0.1,0.4,0,0.9-0.4,1C159.7,192.7,159.6,192.7,159.5,192.7z"/>
						</g>
					</g>
					<g>
						<g>
							<path fill="#EA8400" d="M164.2,191.8c-0.3,0.1-4.7,1.7-10.8,1.7c-3.1,0-6.7-0.4-10.5-1.7c-0.1-0.5-0.2-1-0.2-1.5
								c0.2-0.1,0.3-0.1,0.5-0.1c10.7,3.6,20.5,0,20.6,0c0.3-0.1,0.7,0.1,0.8,0.5C164.7,191.2,164.5,191.7,164.2,191.8z"/>
						</g>
					</g>
					<g>
						<g>
							<path fill="#EA8400" d="M158,166.3c-0.3,0-0.5,0-0.8,0c-2.8-0.2-7-1.7-10.5-7.5c-0.2-0.4-0.1-0.8,0.1-1.1
								c0.3-0.3,0.7-0.2,0.9,0.2c6.2,10.2,14.2,6.1,14.3,6.1c0.3-0.2,0.7,0,0.9,0.4c0.1,0.4,0,0.9-0.3,1
								C162.5,165.3,160.7,166.3,158,166.3z"/>
						</g>
					</g>
					<g>
						<g>
							<path fill="#EA8400" d="M128.3,185.1c-8.3-5.8-14.4-16.3-13.3-35C120.7,157.8,130.1,172.4,128.3,185.1z"/>
						</g>
					</g>
				</g>
			</g>
		</g>
		<g>
			<g>
				<g>
					<g>
						<path fill="#FF7757" d="M264.1,68.8h-34.7c-0.6,0-1-0.6-1-1.2v-34c0-0.7,0.5-1.2,1-1.2h34.7c0.6,0,1,0.6,1,1.2v34
							C265.2,68.3,264.7,68.8,264.1,68.8z"/>
					</g>
				</g>
			</g>
		</g>
		<path fill="#FF7757" d="M254.4,67.4l3.2,7.7c0.1,0.3,0.5,0.3,0.6-0.1l2.1-7.6H254.4z"/>
		<g>
			<g>
				<g>
					<g>
						<path fill="#FFFFFF" d="M254.1,57C254.1,57,254.1,57,254.1,57l-18.8-3.8c-0.1,0-0.2-0.1-0.2-0.3l-1.2-9.6c0-0.1,0-0.2,0.1-0.3
							c0.1-0.1,0.1-0.1,0.2-0.1h22.3c0.1,0,0.2,0,0.2,0.1c0.1,0.1,0.1,0.2,0.1,0.3l-2.3,13.4C254.4,56.9,254.3,57,254.1,57z
							 M235.7,52.6l18.3,3.7l2.2-12.7h-21.6L235.7,52.6z"/>
					</g>
				</g>
			</g>
			<g>
				<g>
					<path fill="#FFFFFF" d="M255.7,47.5C255.7,47.5,255.7,47.5,255.7,47.5l-21.1-0.7c-0.1,0-0.2-0.1-0.2-0.3c0-0.2,0.1-0.3,0.2-0.3
						l21.1,0.7c0.1,0,0.2,0.1,0.2,0.3C255.9,47.4,255.8,47.5,255.7,47.5z"/>
				</g>
			</g>
			<g>
				<g>
					<path fill="#FFFFFF" d="M254.7,52.3C254.7,52.3,254.7,52.3,254.7,52.3L235,50c-0.1,0-0.2-0.2-0.2-0.3c0-0.2,0.1-0.3,0.3-0.3
						l19.7,2.3c0.1,0,0.2,0.2,0.2,0.3C255,52.2,254.9,52.3,254.7,52.3z"/>
				</g>
			</g>
			<g>
				<g>
					<g>
						<path fill="#FFFFFF" d="M256.5,43.6C256.5,43.6,256.4,43.6,256.5,43.6c-0.2,0-0.3-0.2-0.3-0.4l0.9-4.7c0-0.2,0.1-0.3,0.3-0.3
							h3.8c0.2,0,0.3,0.2,0.3,0.3c0,0.2-0.1,0.3-0.3,0.3h-3.5l-0.8,4.4C256.7,43.5,256.6,43.6,256.5,43.6z"/>
					</g>
				</g>
			</g>
			<g>
				<g>
					<path fill="#FFFFFF" d="M262.5,39.5h-3.1c-0.3,0-0.5-0.2-0.5-0.5v-0.7c0-0.3,0.2-0.5,0.5-0.5h3.1c0.3,0,0.5,0.2,0.5,0.5V39
						C263,39.3,262.7,39.5,262.5,39.5z"/>
				</g>
			</g>
			<g>
				<g>
					<g>
						<path fill="#FFFFFF" d="M253.5,60.3h-17.2c-0.2,0-0.3-0.2-0.3-0.3c0-0.2,0.1-0.3,0.3-0.3h17l0.6-3c0-0.2,0.2-0.3,0.3-0.3
							c0.2,0,0.2,0.2,0.2,0.4l-0.6,3.2C253.8,60.1,253.7,60.3,253.5,60.3z"/>
					</g>
				</g>
			</g>
			<g>
				<g>
					<g>
						<g>
							<path fill="#FFFFFF" d="M242,63.6c-0.8,0-1.5-0.8-1.5-1.8c0-1,0.7-1.8,1.5-1.8c0.8,0,1.5,0.8,1.5,1.8
								C243.5,62.8,242.9,63.6,242,63.6z M242,60.5c-0.6,0-1,0.6-1,1.2c0,0.7,0.5,1.2,1,1.2c0.6,0,1-0.6,1-1.2
								C243.1,61.1,242.6,60.5,242,60.5z"/>
						</g>
					</g>
				</g>
			</g>
			<g>
				<g>
					<g>
						<g>
							<path fill="#FFFFFF" d="M248.2,63.6c-0.8,0-1.5-0.8-1.5-1.8c0-1,0.7-1.8,1.5-1.8c0.8,0,1.5,0.8,1.5,1.8
								C249.8,62.8,249.1,63.6,248.2,63.6z M248.2,60.5c-0.6,0-1,0.6-1,1.2c0,0.7,0.5,1.2,1,1.2s1-0.6,1-1.2
								C249.3,61.1,248.8,60.5,248.2,60.5z"/>
						</g>
					</g>
				</g>
			</g>
		</g>
	</g>
	<g>
		<g>
			<g>
				<g>
					<path fill="#1F141D" d="M294,396L294,396c-0.4,0-0.8-0.5-0.8-1c0.1-2.3,0.4-8.3,1.5-14.2c1.8-10.4,4.9-15.7,9.1-15.7
						c4.2,0,7.2,5.3,8.8,15.8c0.9,5.9,1.2,11.9,1.2,14.2c0,0.5-0.3,1-0.8,1l0,0c-0.4,0-0.8-0.4-0.8-0.9c-0.2-8.6-2-28.1-8.5-28.1
						c-6.6,0-8.7,19.5-9,28.1C294.8,395.6,294.4,396,294,396z"/>
				</g>
			</g>
			<g>
				<polygon fill="#3136DD" points="330.7,467.9 273.8,467.9 281.6,392.5 322.9,392.5 				"/>
			</g>
			<g>
				<polygon fill="#2F72FB" points="327.8,467.9 270.9,467.9 278.8,392.5 320,392.5 				"/>
			</g>
			<polygon fill="#3136DD" points="299.4,443.1 307.6,448.2 306,437.4 312.6,429.7 303.5,428.1 299.4,418.2 295.3,428.1 
				286.1,429.7 292.8,437.4 291.2,448.2 			"/>
			<g>
				<g>
					<ellipse fill="#3136DD" cx="290.3" cy="396.3" rx="1.9" ry="2.3"/>
				</g>
				<g>
					<ellipse fill="#3136DD" cx="310.2" cy="396.3" rx="1.9" ry="2.3"/>
				</g>
				<g>
					<g>
						<path fill="#1F141D" d="M290.4,396L290.4,396c-0.5,0-0.8-0.5-0.8-1c0.1-2.4,0.4-8.6,1.5-14.7c1.9-10.8,5-16.3,9.4-16.3
							c4.3,0,7.4,5.5,9.1,16.3c1,6.1,1.2,12.3,1.3,14.7c0,0.5-0.3,1-0.8,1l0,0c-0.4,0-0.8-0.4-0.8-0.9c-0.2-8.9-2-29.1-8.8-29.1
							c-6.8,0-9,20.2-9.3,29.1C291.2,395.6,290.8,396,290.4,396z"/>
					</g>
				</g>
			</g>
		</g>
		<g>
			<g>
				<g>
					<path fill="#1F141D" d="M249.4,386.3L249.4,386.3c-0.5,0-0.9-0.5-0.9-1.1c0.1-2.6,0.5-9.4,1.7-16.1
						c2.1-11.9,5.5-17.9,10.3-17.9c4.8,0,8.2,6,10,17.9c1.1,6.7,1.3,13.5,1.4,16.1c0,0.6-0.4,1.1-0.9,1.1l0,0c-0.5,0-0.9-0.5-0.9-1
						c-0.2-9.8-2.2-32-9.7-32c-7.5,0-9.8,22.2-10.2,32C250.3,385.8,249.9,386.3,249.4,386.3z"/>
				</g>
			</g>
			<g>
				<polygon fill="#FF3A08" points="291.1,467.9 226.5,467.9 235.4,382.3 282.2,382.3 				"/>
			</g>
			<g>
				<polygon fill="#FF7757" points="287.8,467.9 223.2,467.9 232.1,382.3 278.9,382.3 				"/>
			</g>
			<g>
				<g>
					<path fill="#FF3A08" d="M257.6,446C257.5,446,257.5,446,257.6,446L257.6,446l-0.2,0c-4,0-7.8-1.9-10.6-5.3
						c-2.8-3.4-4.4-7.9-4.4-12.7l0-0.1c0-9.9,6.8-17.9,15.1-17.9c0,0,0,0,0,0h0.1c8.3,0,15.1,8.1,15,18l0,0.1
						c0,4.8-1.6,9.3-4.4,12.7C265.3,444.2,261.6,446,257.6,446z M257.5,444.8C257.5,444.8,257.6,444.8,257.5,444.8
						c3.8,0,7.3-1.7,9.9-4.9c2.7-3.2,4.1-7.3,4.1-11.8l0-0.1c0-9.2-6.3-16.7-14-16.8h-0.1c0,0,0,0,0,0c-7.7,0-14,7.5-14,16.7l0,0.1
						c0,4.5,1.4,8.7,4.1,11.8c2.6,3.2,6.2,4.9,9.9,4.9L257.5,444.8z"/>
				</g>
				<g>
					<path fill="#FF3A08" d="M257.8,440C257.8,440,257.8,440,257.8,440c-0.1,0-0.3-0.1-0.4-0.2l-7.3-8.7c-1.1-1.4-1.7-3.2-1.7-5.1
						c0-1.9,0.6-3.7,1.8-5.1c1-1.2,2.3-1.8,3.6-1.6c1.5,0.2,2.9,1.3,4.1,3.1c1.2-1.8,2.6-2.9,4.1-3.1c1.3-0.1,2.6,0.4,3.6,1.6
						c1.1,1.4,1.7,3.2,1.7,5.1c0,1.9-0.6,3.7-1.8,5.1l-7.3,8.7C258,439.9,257.9,440,257.8,440z"/>
				</g>
			</g>
			<g>
				<g>
					<ellipse fill="#FF3A08" cx="245.2" cy="386.6" rx="2.2" ry="2.6"/>
				</g>
				<g>
					<ellipse fill="#FF3A08" cx="267.8" cy="386.6" rx="2.2" ry="2.6"/>
				</g>
				<g>
					<g>
						<path fill="#1F141D" d="M245.3,386.3L245.3,386.3c-0.5,0-0.9-0.5-0.9-1.1c0.1-2.7,0.5-9.7,1.7-16.7
							c2.1-12.3,5.7-18.5,10.7-18.5c4.9,0,8.4,6.2,10.4,18.5c1.1,7,1.4,14,1.5,16.7c0,0.6-0.4,1.1-0.9,1.1l0,0
							c-0.5,0-0.9-0.5-0.9-1.1c-0.2-10.1-2.3-33-10-33c-7.7,0-10.2,22.9-10.5,33.1C246.2,385.8,245.8,386.3,245.3,386.3z"/>
					</g>
				</g>
			</g>
		</g>
	</g>
	<g>
		<g>
			<g>
				<path fill="#D4BFA0" d="M514.2,51.9C514.1,51.9,514.1,51.9,514.2,51.9l-4.6-0.2c-0.1,0-0.2-0.1-0.3-0.1
					c-0.1-0.1-0.1-0.2-0.1-0.3l0.1-3.6c-1.9-0.2-3.9-0.8-5.5-1.5c-1-0.4-1.9-1-2.6-1.5c-0.2-0.1-0.2-0.4-0.1-0.6l2.6-6.6
					c0-0.1,0.1-0.2,0.3-0.3c0.1,0,0.2,0,0.3,0.1c1.3,1,2.9,1.8,4.5,2.2c0.9,0.3,1.9,0.4,2.7,0.4c1,0,1.7-0.1,2.1-0.3
					c0.4-0.2,0.4-0.4,0.4-0.6c0-0.8-1.4-1.2-2.9-1.7l-0.5-0.2c-1.8-0.5-3.8-1.1-5.5-2.2c-1.2-0.9-2.1-1.9-2.7-3.2
					c-0.5-1.1-0.7-2.4-0.7-3.9c0.1-4.8,3.2-8.3,8.2-9.1L510,15c0-0.1,0-0.2,0.1-0.3c0.1-0.1,0.2-0.1,0.3-0.1l4.6,0.2
					c0.2,0,0.4,0.2,0.4,0.5l-0.1,3.7c0.8,0.1,1.5,0.3,2.2,0.5c1.6,0.5,2.9,1.1,4.1,2c0.2,0.1,0.2,0.4,0.2,0.6l-2.5,6.5
					c0,0.1-0.1,0.2-0.2,0.3c-0.1,0-0.2,0-0.3,0c-0.1-0.1-0.3-0.2-0.4-0.3c-2-1.2-3.9-1.8-5.6-1.9c-0.1,0-0.3,0-0.4,0
					c-1,0-2.2,0.2-2.2,1.1c0,0.1,0,0.3,0.3,0.6c0.6,0.5,1.7,0.8,3.1,1.2c0.9,0.2,1.9,0.5,2.9,0.9c1.8,0.7,4.3,1.9,5.5,4.7v0
					c0.4,1.1,0.6,2.3,0.6,3.6c-0.1,4.6-3.1,8-7.8,9l-0.1,3.9c0,0.1,0,0.2-0.1,0.3C514.4,51.9,514.3,51.9,514.2,51.9z M510,50.8
					l3.8,0.1l0.1-3.8c0-0.2,0.2-0.4,0.3-0.5c4.5-0.8,7.3-3.8,7.4-8.1c0-1.2-0.1-2.3-0.5-3.2l0,0c-0.7-1.9-2.3-3.2-5-4.2
					c-0.9-0.3-1.9-0.6-2.8-0.9c-1.4-0.4-2.7-0.7-3.4-1.3c-0.4-0.4-0.7-0.8-0.7-1.4c0-0.9,0.6-2,3-2.1c0.1,0,0.3,0,0.4,0
					c1.9,0.1,3.9,0.7,6,2c0,0,0.1,0,0.1,0.1l2.1-5.7c-1-0.7-2.2-1.2-3.6-1.6c-0.8-0.2-1.6-0.4-2.5-0.5c-0.2,0-0.4-0.2-0.4-0.5
					l0.1-3.7l-3.8-0.1l-0.1,3.7c0,0.2-0.2,0.4-0.4,0.5c-4.8,0.6-7.7,3.7-7.8,8.2c0,1.3,0.2,2.5,0.6,3.5c0.5,1.1,1.3,2,2.4,2.8
					c1.6,1.1,3.5,1.6,5.2,2.1l0.6,0.2c1.7,0.5,3.6,1,3.5,2.7c0,0.5-0.2,1.1-0.9,1.5c-0.5,0.3-1.3,0.4-2.5,0.3
					c-0.9,0-1.9-0.2-2.9-0.5c-1.5-0.4-3.1-1.2-4.4-2.1l-2.3,5.7c0.6,0.4,1.3,0.8,2.1,1.2c1.7,0.8,3.7,1.3,5.7,1.5
					c0.2,0,0.4,0.2,0.4,0.5L510,50.8z"/>
			</g>
		</g>
		<g>
			<g>
				<path fill="#D4BFA0" d="M292.4,2.2L292.4,2.2c0,0.3,0.2,0.5,0.5,0.5h113.8c0.3,0,0.5-0.2,0.5-0.5l0,0c0-0.3-0.2-0.5-0.5-0.5
					H292.9C292.6,1.6,292.4,1.9,292.4,2.2z"/>
			</g>
		</g>
		<g>
			<g>
				<path fill="#D4BFA0" d="M146.5,248.8c0-0.3-0.2-0.5-0.5-0.5h-38.6c-0.2,0-0.4,0.2-0.5,0.5c0,0.3,0.2,0.6,0.5,0.6h38.6
					C146.3,249.3,146.5,249.1,146.5,248.8L146.5,248.8z"/>
			</g>
		</g>
		<g>
			<g>
				<g>
					<g>
						<path fill="#D4BFA0" d="M126.7,51.4c-0.1,0-0.1,0-0.2,0l-6.2-3.3c-1.7,0.8-3.6,1.3-5.5,1.3h-0.1c-3.8,0-7.5-1.8-10.2-5.1
							c-2.7-3.2-4.2-7.6-4.2-12.1v-0.1c0-9.4,6.5-17.1,14.4-17.1h0.1c7.9,0,14.4,7.7,14.4,17.2v0.1c0,0,0,0,0,0
							c0,4-1.1,7.7-3.2,10.8l1.1,7.8c0,0.2,0,0.4-0.2,0.5C126.9,51.4,126.8,51.4,126.7,51.4z M120.3,47.1c0.1,0,0.1,0,0.2,0l5.6,3
							l-1-7.1c0-0.1,0-0.3,0.1-0.4c2-2.9,3.1-6.5,3.1-10.3v-0.1c0-8.9-6-16.1-13.5-16.2h-0.1c-7.4,0-13.5,7.2-13.5,16.1v0.1
							c0,4.3,1.4,8.4,3.9,11.4c2.6,3.1,5.9,4.7,9.6,4.7h0.1c1.8,0,3.6-0.4,5.3-1.3C120.2,47.1,120.3,47.1,120.3,47.1z M128.8,32.3
							L128.8,32.3L128.8,32.3z"/>
					</g>
				</g>
			</g>
			<g>
				<g>
					<path fill="#D4BFA0" d="M115.1,44.1C115.1,44.1,115.1,44.1,115.1,44.1c-0.1,0-0.3-0.1-0.4-0.2l-7.3-8.7c-1.1-1.3-1.7-3.1-1.7-5
						c0-1.9,0.6-3.7,1.8-5c1-1.2,2.3-1.7,3.5-1.6c1.5,0.2,2.9,1.3,4.1,3.1c1.2-1.8,2.6-2.9,4.1-3c1.3-0.1,2.6,0.4,3.5,1.6
						c1.1,1.3,1.7,3.1,1.7,5c0,1.9-0.6,3.7-1.8,5l-7.3,8.6C115.3,44,115.2,44.1,115.1,44.1z M110.6,24.7c-0.9,0-1.7,0.4-2.4,1.3
						c-0.9,1.1-1.4,2.6-1.5,4.2c0,1.6,0.5,3.1,1.4,4.2l6.9,8.2l6.9-8.2c0.9-1.1,1.5-2.6,1.5-4.2v0c0-1.6-0.5-3.1-1.4-4.2
						c-0.8-0.9-1.7-1.4-2.7-1.3c-1.3,0.2-2.7,1.3-3.8,3.2c-0.1,0.2-0.3,0.3-0.4,0.3c0,0,0,0,0,0c-0.2,0-0.3-0.1-0.4-0.3
						c-1.1-1.9-2.4-3.1-3.8-3.2C110.8,24.8,110.7,24.7,110.6,24.7z"/>
				</g>
			</g>
		</g>
		<g>
			<path fill="#D4BFA0" d="M134.3,213.8c-2.7,0-4.9,2.6-4.9,5.8c0,3.2,2.2,5.8,4.9,5.8s4.9-2.6,4.9-5.8
				C139.2,216.4,137,213.8,134.3,213.8z M134.3,224.4c-2.2,0-4-2.1-4-4.7c0-2.6,1.8-4.7,4-4.7s4,2.1,4,4.7
				C138.3,222.2,136.5,224.4,134.3,224.4z"/>
		</g>
		<g>
			<path fill="#D4BFA0" d="M530.7,62.7c-2.7,0-4.9,2.6-4.9,5.8c0,3.2,2.2,5.8,4.9,5.8c2.7,0,4.9-2.6,4.9-5.8
				C535.6,65.3,533.4,62.7,530.7,62.7z M530.7,73.2c-2.2,0-4-2.1-4-4.7s1.8-4.7,4-4.7c2.2,0,4,2.1,4,4.7S532.9,73.2,530.7,73.2z"/>
		</g>
	</g>
</g>
</svg>
